<svg xmlns="http://www.w3.org/2000/svg" xmlns:xlink="http://www.w3.org/1999/xlink" width="310" zoomAndPan="magnify" viewBox="0 0 232.5 119.999999" height="160" preserveAspectRatio="xMidYMid meet" version="1.0"><defs><g/></defs><g fill="#737373" fill-opacity="1"><g transform="translate(17.197561, 72.118187)"><g><path d="M 14.96875 0 L 14.96875 -37.671875 L 2.828125 -37.671875 L 2.828125 0 Z M 19.203125 0 C 26.609375 -2.65625 31.96875 -10.5625 31.96875 -18.8125 C 31.96875 -27.0625 26.609375 -35.015625 19.203125 -37.671875 Z M 19.203125 0 "/></g></g></g><g fill="#737373" fill-opacity="1"><g transform="translate(50.462219, 72.118187)"><g><path d="M 20.390625 -35.875 L 13.609375 -35.875 L 13.609375 -29.09375 Z M 27.28125 -12.546875 L 17.84375 -21.96875 L 17.84375 -12.546875 Z M 1.015625 -12.59375 C 1.015625 -19.4375 6.4375 -24.796875 13.609375 -25.140625 L 13.609375 0 C 6.4375 -0.34375 1.015625 -5.703125 1.015625 -12.59375 Z M 1.015625 -12.59375 "/></g></g></g><g fill="#38b6ff" fill-opacity="1"><g transform="translate(76.78165, 72.118187)"><g><path d="M 14.0625 -37.671875 C 6.671875 -35.015625 1.296875 -27.0625 1.296875 -18.8125 C 1.296875 -10.5625 6.671875 -2.65625 14.0625 0 Z M 26.484375 -28.25 L 26.484375 -37.671875 L 17.0625 -37.671875 Z M 26.484375 -28.25 "/></g></g></g><g fill="#737373" fill-opacity="1"><g transform="translate(103.498439, 72.118187)"><g><path d="M 2.421875 -25.140625 L 2.421875 -13.609375 C 2.421875 -9.65625 3.046875 -6.5 6.046875 -3.5 C 8.359375 -1.1875 10.90625 -0.109375 14.578125 0 L 14.578125 -25.140625 Z M 18.8125 -25.140625 L 18.8125 12.546875 C 22.484375 12.421875 25.015625 11.359375 27.34375 9.03125 C 30.328125 6.046875 30.953125 2.875 30.953125 -1.078125 L 30.953125 -25.140625 Z M 18.8125 -25.140625 "/></g></g></g><g fill="#38b6ff" fill-opacity="1"><g transform="translate(137.108321, 72.118187)"><g><path d="M 26.328125 -28.25 L 26.328125 -37.671875 L 16.890625 -37.671875 Z M 1.296875 -25.140625 C 1.296875 -18.25 6.71875 -12.875 13.890625 -12.546875 L 13.890625 -37.671875 C 6.71875 -37.34375 1.296875 -31.96875 1.296875 -25.140625 Z M 30.734375 -12.59375 C 30.734375 -19.4375 25.3125 -24.796875 18.125 -25.140625 L 18.125 0 C 25.3125 -0.34375 30.734375 -5.703125 30.734375 -12.59375 Z M 30.734375 -12.59375 "/></g></g></g><g fill="#737373" fill-opacity="1"><g transform="translate(169.136181, 72.118187)"><g><path d="M 2.65625 -37.671875 L 2.65625 -28.25 L 12.09375 -37.671875 Z M 14.796875 0 L 14.796875 -25.140625 L 2.65625 -25.140625 L 2.65625 0 Z M 14.796875 0 "/></g></g></g><g fill="#737373" fill-opacity="1"><g transform="translate(186.58742, 72.118187)"><g><path d="M 17.625 -25.140625 L 27.0625 -15.703125 L 27.0625 -25.140625 Z M 17.625 -37.671875 L 27.0625 -28.25 L 27.0625 -37.671875 Z M 14.578125 0 L 14.578125 -37.671875 C 10.90625 -37.5625 8.359375 -36.484375 6.046875 -34.171875 C 3.046875 -31.171875 2.421875 -28.015625 2.421875 -24.0625 L 2.421875 0 Z M 14.578125 0 "/></g></g></g><g fill="#38b6ff" fill-opacity="1"><g transform="translate(18.758014, 102.608896)"><g><path d="M 3.546875 -12.3125 C 3.546875 -11.71875 3.769531 -11.265625 4.21875 -10.953125 C 4.675781 -10.640625 5.242188 -10.375 5.921875 -10.15625 C 6.597656 -9.9375 7.332031 -9.722656 8.125 -9.515625 C 8.914062 -9.316406 9.640625 -9.035156 10.296875 -8.671875 C 10.960938 -8.316406 11.507812 -7.832031 11.9375 -7.21875 C 12.375 -6.613281 12.578125 -5.785156 12.546875 -4.734375 C 12.523438 -4.410156 12.457031 -3.972656 12.34375 -3.421875 C 12.238281 -2.878906 11.992188 -2.34375 11.609375 -1.8125 C 11.234375 -1.289062 10.679688 -0.835938 9.953125 -0.453125 C 9.222656 -0.0664062 8.234375 0.125 6.984375 0.125 C 6.035156 0.125 5.171875 -0.00390625 4.390625 -0.265625 C 3.609375 -0.523438 2.945312 -0.894531 2.40625 -1.375 C 1.863281 -1.863281 1.441406 -2.457031 1.140625 -3.15625 C 0.847656 -3.863281 0.703125 -4.664062 0.703125 -5.5625 L 0.703125 -5.890625 L 2.890625 -5.890625 C 3.015625 -4.578125 3.40625 -3.617188 4.0625 -3.015625 C 4.726562 -2.410156 5.625 -2.109375 6.75 -2.109375 C 7.15625 -2.109375 7.566406 -2.140625 7.984375 -2.203125 C 8.410156 -2.265625 8.796875 -2.390625 9.140625 -2.578125 C 9.484375 -2.765625 9.765625 -3.019531 9.984375 -3.34375 C 10.203125 -3.664062 10.3125 -4.082031 10.3125 -4.59375 C 10.3125 -5.363281 10.085938 -5.945312 9.640625 -6.34375 C 9.203125 -6.738281 8.648438 -7.054688 7.984375 -7.296875 C 7.316406 -7.546875 6.59375 -7.753906 5.8125 -7.921875 C 5.03125 -8.097656 4.304688 -8.34375 3.640625 -8.65625 C 2.984375 -8.96875 2.429688 -9.394531 1.984375 -9.9375 C 1.535156 -10.488281 1.3125 -11.253906 1.3125 -12.234375 C 1.3125 -12.921875 1.4375 -13.535156 1.6875 -14.078125 C 1.9375 -14.628906 2.285156 -15.09375 2.734375 -15.46875 C 3.191406 -15.84375 3.738281 -16.128906 4.375 -16.328125 C 5.019531 -16.523438 5.734375 -16.625 6.515625 -16.625 C 8.128906 -16.625 9.425781 -16.203125 10.40625 -15.359375 C 11.394531 -14.523438 11.925781 -13.3125 12 -11.71875 L 9.828125 -11.71875 C 9.648438 -12.707031 9.285156 -13.40625 8.734375 -13.8125 C 8.191406 -14.21875 7.476562 -14.421875 6.59375 -14.421875 C 5.695312 -14.421875 4.960938 -14.242188 4.390625 -13.890625 C 3.828125 -13.535156 3.546875 -13.007812 3.546875 -12.3125 Z M 3.546875 -12.3125 "/></g></g></g><g fill="#38b6ff" fill-opacity="1"><g transform="translate(32.022416, 102.608896)"><g><path d="M 6.21875 -11.5625 C 7.226562 -11.5625 8.085938 -11.390625 8.796875 -11.046875 C 9.515625 -10.703125 10.085938 -10.21875 10.515625 -9.59375 C 10.941406 -8.976562 11.238281 -8.25 11.40625 -7.40625 C 11.570312 -6.5625 11.613281 -5.648438 11.53125 -4.671875 L 2.9375 -4.671875 C 2.9375 -4.117188 3.019531 -3.671875 3.1875 -3.328125 C 3.363281 -2.984375 3.597656 -2.71875 3.890625 -2.53125 C 4.191406 -2.34375 4.53125 -2.210938 4.90625 -2.140625 C 5.28125 -2.078125 5.675781 -2.046875 6.09375 -2.046875 C 6.394531 -2.046875 6.703125 -2.054688 7.015625 -2.078125 C 7.328125 -2.097656 7.613281 -2.148438 7.875 -2.234375 C 8.144531 -2.328125 8.382812 -2.457031 8.59375 -2.625 C 8.800781 -2.800781 8.945312 -3.035156 9.03125 -3.328125 L 11.28125 -3.328125 C 11.125 -2.703125 10.882812 -2.175781 10.5625 -1.75 C 10.238281 -1.320312 9.851562 -0.972656 9.40625 -0.703125 C 8.96875 -0.441406 8.46875 -0.242188 7.90625 -0.109375 C 7.351562 0.015625 6.765625 0.078125 6.140625 0.078125 C 4.253906 0.078125 2.875 -0.414062 2 -1.40625 C 1.132812 -2.394531 0.703125 -3.84375 0.703125 -5.75 C 0.703125 -6.59375 0.816406 -7.367188 1.046875 -8.078125 C 1.273438 -8.785156 1.613281 -9.394531 2.0625 -9.90625 C 2.519531 -10.425781 3.09375 -10.832031 3.78125 -11.125 C 4.46875 -11.414062 5.28125 -11.5625 6.21875 -11.5625 Z M 9.359375 -6.734375 C 9.335938 -6.921875 9.296875 -7.171875 9.234375 -7.484375 C 9.171875 -7.804688 9.035156 -8.117188 8.828125 -8.421875 C 8.617188 -8.734375 8.3125 -9 7.90625 -9.21875 C 7.5 -9.4375 6.941406 -9.546875 6.234375 -9.546875 C 5.597656 -9.546875 5.066406 -9.453125 4.640625 -9.265625 C 4.222656 -9.078125 3.882812 -8.84375 3.625 -8.5625 C 3.363281 -8.28125 3.179688 -7.972656 3.078125 -7.640625 C 2.984375 -7.316406 2.9375 -7.015625 2.9375 -6.734375 Z M 9.359375 -6.734375 "/></g></g></g><g fill="#38b6ff" fill-opacity="1"><g transform="translate(44.30253, 102.608896)"><g><path d="M 6.125 -9.40625 C 5.5625 -9.40625 5.078125 -9.359375 4.671875 -9.265625 C 4.265625 -9.179688 3.929688 -9.015625 3.671875 -8.765625 C 3.410156 -8.515625 3.21875 -8.15625 3.09375 -7.6875 C 2.96875 -7.21875 2.90625 -6.609375 2.90625 -5.859375 C 2.90625 -5.003906 2.976562 -4.328125 3.125 -3.828125 C 3.28125 -3.328125 3.492188 -2.953125 3.765625 -2.703125 C 4.035156 -2.460938 4.367188 -2.3125 4.765625 -2.25 C 5.171875 -2.1875 5.625 -2.15625 6.125 -2.15625 C 6.507812 -2.15625 6.863281 -2.171875 7.1875 -2.203125 C 7.519531 -2.234375 7.816406 -2.304688 8.078125 -2.421875 C 8.335938 -2.546875 8.554688 -2.722656 8.734375 -2.953125 C 8.910156 -3.191406 9.054688 -3.515625 9.171875 -3.921875 L 11.421875 -3.921875 C 11.265625 -3.054688 11 -2.363281 10.625 -1.84375 C 10.257812 -1.320312 9.832031 -0.921875 9.34375 -0.640625 C 8.863281 -0.359375 8.34375 -0.171875 7.78125 -0.078125 C 7.21875 0.00390625 6.664062 0.046875 6.125 0.046875 C 5.5 0.046875 4.863281 -0.015625 4.21875 -0.140625 C 3.582031 -0.265625 3 -0.523438 2.46875 -0.921875 C 1.945312 -1.328125 1.519531 -1.914062 1.1875 -2.6875 C 0.863281 -3.457031 0.703125 -4.484375 0.703125 -5.765625 C 0.703125 -7.066406 0.863281 -8.097656 1.1875 -8.859375 C 1.519531 -9.628906 1.945312 -10.21875 2.46875 -10.625 C 3 -11.03125 3.582031 -11.296875 4.21875 -11.421875 C 4.863281 -11.546875 5.5 -11.609375 6.125 -11.609375 C 6.664062 -11.609375 7.21875 -11.5625 7.78125 -11.46875 C 8.34375 -11.375 8.867188 -11.1875 9.359375 -10.90625 C 9.859375 -10.625 10.285156 -10.21875 10.640625 -9.6875 C 11.003906 -9.15625 11.265625 -8.453125 11.421875 -7.578125 L 9.1875 -7.578125 C 9 -8.335938 8.660156 -8.832031 8.171875 -9.0625 C 7.679688 -9.289062 7 -9.40625 6.125 -9.40625 Z M 6.125 -9.40625 "/></g></g></g><g fill="#38b6ff" fill-opacity="1"><g transform="translate(56.4186, 102.608896)"><g><path d="M 8.484375 -11.625 L 10.6875 -11.625 L 10.6875 0 L 1.171875 0 L 1.171875 -11.625 L 3.375 -11.625 L 3.375 -2.203125 L 8.484375 -2.203125 Z M 8.484375 -11.625 "/></g></g></g><g fill="#38b6ff" fill-opacity="1"><g transform="translate(68.276883, 102.608896)"><g><path d="M 8.484375 -11.625 L 8.484375 -9.421875 L 3.375 -9.421875 L 3.375 0 L 1.171875 0 L 1.171875 -11.625 Z M 8.484375 -11.625 "/></g></g></g><g fill="#38b6ff" fill-opacity="1"><g transform="translate(77.580715, 102.608896)"><g><path d="M 1.171875 -11.71875 L 3.375 -11.71875 L 3.375 0 L 1.171875 0 Z M 3.375 -16.40625 L 3.375 -14.203125 L 1.171875 -14.203125 L 1.171875 -16.40625 Z M 3.375 -16.40625 "/></g></g></g><g fill="#38b6ff" fill-opacity="1"><g transform="translate(82.15061, 102.608896)"><g><path d="M 4.875 -2.203125 L 9.6875 -2.203125 L 9.6875 0 L 2.671875 0 L 2.671875 -9.421875 L 0.703125 -9.421875 L 0.703125 -11.625 L 2.671875 -11.625 L 2.671875 -16.40625 L 4.875 -16.40625 L 4.875 -11.625 L 8.796875 -11.625 L 8.796875 -9.421875 L 4.875 -9.421875 Z M 4.875 -2.203125 "/></g></g></g><g fill="#38b6ff" fill-opacity="1"><g transform="translate(92.673075, 102.608896)"><g><path d="M 3.28125 -11.671875 L 3.28125 -6.03125 C 3.28125 -5.257812 3.34375 -4.628906 3.46875 -4.140625 C 3.59375 -3.648438 3.785156 -3.265625 4.046875 -2.984375 C 4.304688 -2.703125 4.632812 -2.503906 5.03125 -2.390625 C 5.425781 -2.285156 5.890625 -2.234375 6.421875 -2.234375 C 6.972656 -2.234375 7.457031 -2.285156 7.875 -2.390625 C 8.300781 -2.503906 8.65625 -2.703125 8.9375 -2.984375 C 9.21875 -3.265625 9.429688 -3.632812 9.578125 -4.09375 C 9.722656 -4.550781 9.796875 -5.132812 9.796875 -5.84375 L 9.796875 -11.671875 L 12.03125 -11.671875 L 12.03125 4.765625 L 2.09375 4.765625 L 2.09375 2.53125 L 9.734375 2.53125 L 9.734375 -1.359375 L 9.6875 -1.359375 C 9.445312 -1.003906 9.023438 -0.691406 8.421875 -0.421875 C 7.828125 -0.160156 7.15625 -0.03125 6.40625 -0.03125 C 5.78125 -0.03125 5.140625 -0.09375 4.484375 -0.21875 C 3.835938 -0.34375 3.25 -0.609375 2.71875 -1.015625 C 2.1875 -1.421875 1.753906 -2.007812 1.421875 -2.78125 C 1.097656 -3.550781 0.9375 -4.578125 0.9375 -5.859375 L 0.9375 -11.671875 Z M 3.28125 -11.671875 "/></g></g></g><g fill="#38b6ff" fill-opacity="1"><g transform="translate(105.867167, 102.608896)"><g/></g></g><g fill="#38b6ff" fill-opacity="1"><g transform="translate(112.54624, 102.608896)"><g><path d="M 1.171875 -16.4375 L 3.375 -16.4375 L 3.375 -10.40625 L 3.421875 -10.40625 C 3.660156 -10.769531 4.09375 -11.066406 4.71875 -11.296875 C 5.351562 -11.535156 6.046875 -11.65625 6.796875 -11.65625 C 7.441406 -11.65625 8.082031 -11.59375 8.71875 -11.46875 C 9.363281 -11.34375 9.953125 -11.078125 10.484375 -10.671875 C 11.015625 -10.265625 11.441406 -9.675781 11.765625 -8.90625 C 12.097656 -8.144531 12.265625 -7.113281 12.265625 -5.8125 C 12.265625 -4.519531 12.09375 -3.488281 11.75 -2.71875 C 11.414062 -1.957031 10.988281 -1.375 10.46875 -0.96875 C 9.945312 -0.5625 9.359375 -0.296875 8.703125 -0.171875 C 8.054688 -0.0546875 7.421875 0 6.796875 0 C 6.128906 0 5.476562 -0.128906 4.84375 -0.390625 C 4.207031 -0.648438 3.710938 -0.953125 3.359375 -1.296875 L 3.28125 -1.296875 L 3.046875 0 L 1.171875 0 Z M 6.703125 -2.203125 C 7.203125 -2.203125 7.648438 -2.234375 8.046875 -2.296875 C 8.453125 -2.359375 8.789062 -2.507812 9.0625 -2.75 C 9.332031 -3 9.539062 -3.367188 9.6875 -3.859375 C 9.84375 -4.347656 9.921875 -5.023438 9.921875 -5.890625 C 9.921875 -6.648438 9.859375 -7.257812 9.734375 -7.71875 C 9.609375 -8.1875 9.414062 -8.546875 9.15625 -8.796875 C 8.894531 -9.054688 8.5625 -9.226562 8.15625 -9.3125 C 7.75 -9.40625 7.265625 -9.453125 6.703125 -9.453125 C 6.140625 -9.453125 5.648438 -9.40625 5.234375 -9.3125 C 4.828125 -9.226562 4.492188 -9.054688 4.234375 -8.796875 C 3.972656 -8.546875 3.78125 -8.1875 3.65625 -7.71875 C 3.53125 -7.257812 3.46875 -6.648438 3.46875 -5.890625 C 3.46875 -5.023438 3.539062 -4.347656 3.6875 -3.859375 C 3.84375 -3.367188 4.0625 -3 4.34375 -2.75 C 4.625 -2.507812 4.960938 -2.359375 5.359375 -2.296875 C 5.753906 -2.234375 6.203125 -2.203125 6.703125 -2.203125 Z M 6.703125 -2.203125 "/></g></g></g><g fill="#38b6ff" fill-opacity="1"><g transform="translate(125.505979, 102.608896)"><g><path d="M 3.28125 -11.671875 L 3.28125 -6.03125 C 3.28125 -5.257812 3.34375 -4.628906 3.46875 -4.140625 C 3.59375 -3.648438 3.785156 -3.265625 4.046875 -2.984375 C 4.304688 -2.703125 4.632812 -2.503906 5.03125 -2.390625 C 5.425781 -2.285156 5.890625 -2.234375 6.421875 -2.234375 C 6.972656 -2.234375 7.457031 -2.285156 7.875 -2.390625 C 8.300781 -2.503906 8.65625 -2.703125 8.9375 -2.984375 C 9.21875 -3.265625 9.429688 -3.632812 9.578125 -4.09375 C 9.722656 -4.550781 9.796875 -5.132812 9.796875 -5.84375 L 9.796875 -11.671875 L 12.03125 -11.671875 L 12.03125 4.765625 L 2.09375 4.765625 L 2.09375 2.53125 L 9.734375 2.53125 L 9.734375 -1.359375 L 9.6875 -1.359375 C 9.445312 -1.003906 9.023438 -0.691406 8.421875 -0.421875 C 7.828125 -0.160156 7.15625 -0.03125 6.40625 -0.03125 C 5.78125 -0.03125 5.140625 -0.09375 4.484375 -0.21875 C 3.835938 -0.34375 3.25 -0.609375 2.71875 -1.015625 C 2.1875 -1.421875 1.753906 -2.007812 1.421875 -2.78125 C 1.097656 -3.550781 0.9375 -4.578125 0.9375 -5.859375 L 0.9375 -11.671875 Z M 3.28125 -11.671875 "/></g></g></g><g fill="#38b6ff" fill-opacity="1"><g transform="translate(138.700071, 102.608896)"><g/></g></g><g fill="#38b6ff" fill-opacity="1"><g transform="translate(145.379144, 102.608896)"><g><path d="M 7.5 -16.390625 C 8.28125 -16.390625 9.007812 -16.242188 9.6875 -15.953125 C 10.375 -15.660156 10.96875 -15.257812 11.46875 -14.75 C 11.96875 -14.25 12.363281 -13.660156 12.65625 -12.984375 C 12.957031 -12.316406 13.109375 -11.59375 13.109375 -10.8125 L 13.109375 -5.578125 C 13.109375 -4.816406 12.96875 -4.09375 12.6875 -3.40625 C 12.414062 -2.726562 12.039062 -2.140625 11.5625 -1.640625 C 11.09375 -1.140625 10.53125 -0.738281 9.875 -0.4375 C 9.21875 -0.144531 8.503906 0 7.734375 0 L 1.171875 0 L 1.171875 -16.390625 Z M 10.90625 -10.8125 C 10.90625 -11.820312 10.617188 -12.640625 10.046875 -13.265625 C 9.472656 -13.890625 8.664062 -14.203125 7.625 -14.203125 L 3.375 -14.203125 L 3.375 -2.203125 L 7.5 -2.203125 C 8.5625 -2.203125 9.394531 -2.503906 10 -3.109375 C 10.601562 -3.722656 10.90625 -4.546875 10.90625 -5.578125 Z M 10.90625 -10.8125 "/></g></g></g><g fill="#38b6ff" fill-opacity="1"><g transform="translate(159.182561, 102.608896)"><g><path d="M 6.21875 -11.5625 C 7.226562 -11.5625 8.085938 -11.390625 8.796875 -11.046875 C 9.515625 -10.703125 10.085938 -10.21875 10.515625 -9.59375 C 10.941406 -8.976562 11.238281 -8.25 11.40625 -7.40625 C 11.570312 -6.5625 11.613281 -5.648438 11.53125 -4.671875 L 2.9375 -4.671875 C 2.9375 -4.117188 3.019531 -3.671875 3.1875 -3.328125 C 3.363281 -2.984375 3.597656 -2.71875 3.890625 -2.53125 C 4.191406 -2.34375 4.53125 -2.210938 4.90625 -2.140625 C 5.28125 -2.078125 5.675781 -2.046875 6.09375 -2.046875 C 6.394531 -2.046875 6.703125 -2.054688 7.015625 -2.078125 C 7.328125 -2.097656 7.613281 -2.148438 7.875 -2.234375 C 8.144531 -2.328125 8.382812 -2.457031 8.59375 -2.625 C 8.800781 -2.800781 8.945312 -3.035156 9.03125 -3.328125 L 11.28125 -3.328125 C 11.125 -2.703125 10.882812 -2.175781 10.5625 -1.75 C 10.238281 -1.320312 9.851562 -0.972656 9.40625 -0.703125 C 8.96875 -0.441406 8.46875 -0.242188 7.90625 -0.109375 C 7.351562 0.015625 6.765625 0.078125 6.140625 0.078125 C 4.253906 0.078125 2.875 -0.414062 2 -1.40625 C 1.132812 -2.394531 0.703125 -3.84375 0.703125 -5.75 C 0.703125 -6.59375 0.816406 -7.367188 1.046875 -8.078125 C 1.273438 -8.785156 1.613281 -9.394531 2.0625 -9.90625 C 2.519531 -10.425781 3.09375 -10.832031 3.78125 -11.125 C 4.46875 -11.414062 5.28125 -11.5625 6.21875 -11.5625 Z M 9.359375 -6.734375 C 9.335938 -6.921875 9.296875 -7.171875 9.234375 -7.484375 C 9.171875 -7.804688 9.035156 -8.117188 8.828125 -8.421875 C 8.617188 -8.734375 8.3125 -9 7.90625 -9.21875 C 7.5 -9.4375 6.941406 -9.546875 6.234375 -9.546875 C 5.597656 -9.546875 5.066406 -9.453125 4.640625 -9.265625 C 4.222656 -9.078125 3.882812 -8.84375 3.625 -8.5625 C 3.363281 -8.28125 3.179688 -7.972656 3.078125 -7.640625 C 2.984375 -7.316406 2.9375 -7.015625 2.9375 -6.734375 Z M 9.359375 -6.734375 "/></g></g></g><g fill="#38b6ff" fill-opacity="1"><g transform="translate(171.462683, 102.608896)"><g><path d="M 3.3125 -8.234375 C 3.34375 -7.929688 3.519531 -7.691406 3.84375 -7.515625 C 4.175781 -7.347656 4.585938 -7.195312 5.078125 -7.0625 C 5.566406 -6.9375 6.09375 -6.796875 6.65625 -6.640625 C 7.21875 -6.492188 7.738281 -6.285156 8.21875 -6.015625 C 8.707031 -5.753906 9.113281 -5.410156 9.4375 -4.984375 C 9.757812 -4.554688 9.921875 -4 9.921875 -3.3125 C 9.921875 -2.882812 9.835938 -2.46875 9.671875 -2.0625 C 9.503906 -1.65625 9.238281 -1.289062 8.875 -0.96875 C 8.519531 -0.65625 8.054688 -0.394531 7.484375 -0.1875 C 6.921875 0.0195312 6.238281 0.125 5.4375 0.125 C 4.800781 0.125 4.203125 0.0234375 3.640625 -0.171875 C 3.085938 -0.367188 2.597656 -0.644531 2.171875 -1 C 1.753906 -1.351562 1.414062 -1.765625 1.15625 -2.234375 C 0.90625 -2.710938 0.753906 -3.234375 0.703125 -3.796875 L 3.125 -3.796875 C 3.164062 -3.566406 3.238281 -3.332031 3.34375 -3.09375 C 3.445312 -2.863281 3.59375 -2.65625 3.78125 -2.46875 C 3.976562 -2.28125 4.222656 -2.128906 4.515625 -2.015625 C 4.816406 -1.910156 5.179688 -1.859375 5.609375 -1.859375 C 6.117188 -1.859375 6.519531 -1.914062 6.8125 -2.03125 C 7.101562 -2.144531 7.316406 -2.28125 7.453125 -2.4375 C 7.597656 -2.59375 7.6875 -2.738281 7.71875 -2.875 C 7.75 -3.007812 7.765625 -3.09375 7.765625 -3.125 C 7.796875 -3.632812 7.65625 -4.015625 7.34375 -4.265625 C 7.03125 -4.515625 6.625 -4.710938 6.125 -4.859375 C 5.632812 -5.015625 5.097656 -5.140625 4.515625 -5.234375 C 3.941406 -5.335938 3.40625 -5.5 2.90625 -5.71875 C 2.40625 -5.9375 1.988281 -6.25 1.65625 -6.65625 C 1.320312 -7.0625 1.15625 -7.625 1.15625 -8.34375 C 1.15625 -8.769531 1.226562 -9.175781 1.375 -9.5625 C 1.519531 -9.957031 1.753906 -10.3125 2.078125 -10.625 C 2.398438 -10.9375 2.8125 -11.1875 3.3125 -11.375 C 3.8125 -11.5625 4.410156 -11.65625 5.109375 -11.65625 C 5.691406 -11.65625 6.25 -11.582031 6.78125 -11.4375 C 7.3125 -11.300781 7.78125 -11.085938 8.1875 -10.796875 C 8.59375 -10.503906 8.914062 -10.132812 9.15625 -9.6875 C 9.394531 -9.25 9.515625 -8.734375 9.515625 -8.140625 L 7.171875 -8.140625 C 7.140625 -8.328125 7.082031 -8.507812 7 -8.6875 C 6.925781 -8.863281 6.816406 -9.019531 6.671875 -9.15625 C 6.523438 -9.300781 6.328125 -9.421875 6.078125 -9.515625 C 5.835938 -9.609375 5.539062 -9.664062 5.1875 -9.6875 C 4.78125 -9.695312 4.453125 -9.648438 4.203125 -9.546875 C 3.953125 -9.453125 3.757812 -9.328125 3.625 -9.171875 C 3.488281 -9.015625 3.394531 -8.847656 3.34375 -8.671875 C 3.300781 -8.503906 3.289062 -8.359375 3.3125 -8.234375 Z M 3.3125 -8.234375 "/></g></g></g><g fill="#38b6ff" fill-opacity="1"><g transform="translate(182.0789, 102.608896)"><g><path d="M 1.171875 -11.71875 L 3.375 -11.71875 L 3.375 0 L 1.171875 0 Z M 3.375 -16.40625 L 3.375 -14.203125 L 1.171875 -14.203125 L 1.171875 -16.40625 Z M 3.375 -16.40625 "/></g></g></g><g fill="#38b6ff" fill-opacity="1"><g transform="translate(186.648786, 102.608896)"><g><path d="M 11.796875 4.765625 L 1.90625 4.765625 L 1.90625 2.53125 L 9.59375 2.53125 L 9.59375 -1.296875 L 9.546875 -1.296875 C 9.304688 -0.929688 8.867188 -0.628906 8.234375 -0.390625 C 7.609375 -0.160156 6.921875 -0.046875 6.171875 -0.046875 C 5.546875 -0.046875 4.90625 -0.109375 4.25 -0.234375 C 3.601562 -0.359375 3.015625 -0.625 2.484375 -1.03125 C 1.953125 -1.4375 1.519531 -2.023438 1.1875 -2.796875 C 0.863281 -3.578125 0.703125 -4.609375 0.703125 -5.890625 C 0.703125 -7.179688 0.867188 -8.207031 1.203125 -8.96875 C 1.546875 -9.738281 1.976562 -10.328125 2.5 -10.734375 C 3.019531 -11.140625 3.601562 -11.398438 4.25 -11.515625 C 4.90625 -11.640625 5.546875 -11.703125 6.171875 -11.703125 C 6.960938 -11.703125 7.671875 -11.582031 8.296875 -11.34375 C 8.921875 -11.113281 9.359375 -10.800781 9.609375 -10.40625 L 9.6875 -10.40625 L 9.6875 -11.703125 L 11.796875 -11.703125 Z M 6.265625 -2.28125 C 6.867188 -2.28125 7.378906 -2.328125 7.796875 -2.421875 C 8.222656 -2.523438 8.570312 -2.707031 8.84375 -2.96875 C 9.125 -3.226562 9.328125 -3.59375 9.453125 -4.0625 C 9.578125 -4.53125 9.640625 -5.125 9.640625 -5.84375 C 9.640625 -6.65625 9.5625 -7.300781 9.40625 -7.78125 C 9.257812 -8.269531 9.046875 -8.640625 8.765625 -8.890625 C 8.484375 -9.148438 8.144531 -9.316406 7.75 -9.390625 C 7.351562 -9.472656 6.90625 -9.515625 6.40625 -9.515625 C 5.90625 -9.515625 5.453125 -9.484375 5.046875 -9.421875 C 4.648438 -9.359375 4.3125 -9.207031 4.03125 -8.96875 C 3.75 -8.726562 3.535156 -8.359375 3.390625 -7.859375 C 3.242188 -7.367188 3.171875 -6.695312 3.171875 -5.84375 C 3.171875 -5.070312 3.234375 -4.457031 3.359375 -4 C 3.484375 -3.539062 3.671875 -3.179688 3.921875 -2.921875 C 4.171875 -2.660156 4.488281 -2.488281 4.875 -2.40625 C 5.269531 -2.320312 5.734375 -2.28125 6.265625 -2.28125 Z M 6.265625 -2.28125 "/></g></g></g><g fill="#38b6ff" fill-opacity="1"><g transform="translate(199.608533, 102.608896)"><g><path d="M 1.171875 0 L 1.171875 -11.625 L 3.46875 -11.625 L 3.46875 -10.3125 L 3.515625 -10.3125 C 3.753906 -10.675781 4.171875 -10.988281 4.765625 -11.25 C 5.367188 -11.519531 6.046875 -11.65625 6.796875 -11.65625 C 7.441406 -11.65625 8.082031 -11.59375 8.71875 -11.46875 C 9.363281 -11.34375 9.953125 -11.078125 10.484375 -10.671875 C 11.015625 -10.265625 11.441406 -9.675781 11.765625 -8.90625 C 12.097656 -8.144531 12.265625 -7.113281 12.265625 -5.8125 L 12.265625 0 L 9.921875 0 L 9.921875 -5.65625 C 9.921875 -6.414062 9.859375 -7.039062 9.734375 -7.53125 C 9.609375 -8.03125 9.414062 -8.421875 9.15625 -8.703125 C 8.894531 -8.984375 8.566406 -9.175781 8.171875 -9.28125 C 7.773438 -9.394531 7.3125 -9.453125 6.78125 -9.453125 C 6.226562 -9.453125 5.738281 -9.394531 5.3125 -9.28125 C 4.894531 -9.175781 4.546875 -8.984375 4.265625 -8.703125 C 3.984375 -8.421875 3.769531 -8.046875 3.625 -7.578125 C 3.476562 -7.117188 3.40625 -6.539062 3.40625 -5.84375 L 3.40625 0 Z M 1.171875 0 "/></g></g></g></svg>