<svg xmlns="http://www.w3.org/2000/svg" xmlns:xlink="http://www.w3.org/1999/xlink" width="700" zoomAndPan="magnify" viewBox="0 0 525 225" height="300" preserveAspectRatio="xMidYMid meet" version="1.0"><defs><g/></defs><g fill="#737373" fill-opacity="1"><g transform="translate(74.151419, 127.176716)"><g><path d="M 28.59375 0 L 28.59375 -71.96875 L 5.390625 -71.96875 L 5.390625 0 Z M 36.6875 0 C 50.8125 -5.078125 61.0625 -20.171875 61.0625 -35.921875 C 61.0625 -51.671875 50.8125 -66.890625 36.6875 -71.96875 Z M 36.6875 0 "/></g></g></g><g fill="#737373" fill-opacity="1"><g transform="translate(137.70163, 127.176716)"><g><path d="M 38.953125 -68.515625 L 26 -68.515625 L 26 -55.5625 Z M 52.109375 -23.953125 L 34.09375 -41.96875 L 34.09375 -23.953125 Z M 1.9375 -24.0625 C 1.9375 -37.109375 12.296875 -47.359375 26 -48.015625 L 26 0 C 12.296875 -0.640625 1.9375 -10.890625 1.9375 -24.0625 Z M 1.9375 -24.0625 "/></g></g></g><g fill="#38b6ff" fill-opacity="1"><g transform="translate(187.983385, 127.176716)"><g><path d="M 26.859375 -71.96875 C 12.734375 -66.890625 2.484375 -51.671875 2.484375 -35.921875 C 2.484375 -20.171875 12.734375 -5.078125 26.859375 0 Z M 50.59375 -53.9375 L 50.59375 -71.96875 L 32.578125 -71.96875 Z M 50.59375 -53.9375 "/></g></g></g><g fill="#737373" fill-opacity="1"><g transform="translate(239.02427, 127.176716)"><g><path d="M 4.640625 -48.015625 L 4.640625 -26 C 4.640625 -18.453125 5.828125 -12.40625 11.546875 -6.6875 C 15.96875 -2.265625 20.828125 -0.21875 27.828125 0 L 27.828125 -48.015625 Z M 35.921875 -48.015625 L 35.921875 23.953125 C 42.9375 23.734375 47.796875 21.6875 52.21875 17.265625 C 57.9375 11.546875 59.125 5.5 59.125 -2.046875 L 59.125 -48.015625 Z M 35.921875 -48.015625 "/></g></g></g><g fill="#38b6ff" fill-opacity="1"><g transform="translate(303.234011, 127.176716)"><g><path d="M 50.28125 -53.9375 L 50.28125 -71.96875 L 32.265625 -71.96875 Z M 2.484375 -48.015625 C 2.484375 -34.84375 12.84375 -24.59375 26.546875 -23.953125 L 26.546875 -71.96875 C 12.84375 -71.3125 2.484375 -61.0625 2.484375 -48.015625 Z M 58.6875 -24.0625 C 58.6875 -37.109375 48.328125 -47.359375 34.640625 -48.015625 L 34.640625 0 C 48.328125 -0.640625 58.6875 -10.890625 58.6875 -24.0625 Z M 58.6875 -24.0625 "/></g></g></g><g fill="#737373" fill-opacity="1"><g transform="translate(364.421391, 127.176716)"><g><path d="M 5.078125 -71.96875 L 5.078125 -53.9375 L 23.09375 -71.96875 Z M 28.265625 0 L 28.265625 -48.015625 L 5.078125 -48.015625 L 5.078125 0 Z M 28.265625 0 "/></g></g></g><g fill="#737373" fill-opacity="1"><g transform="translate(397.760977, 127.176716)"><g><path d="M 33.65625 -48.015625 L 51.671875 -30 L 51.671875 -48.015625 Z M 33.65625 -71.96875 L 51.671875 -53.9375 L 51.671875 -71.96875 Z M 27.828125 0 L 27.828125 -71.96875 C 20.828125 -71.75 15.96875 -69.703125 11.546875 -65.28125 C 5.828125 -59.5625 4.640625 -53.515625 4.640625 -45.96875 L 4.640625 0 Z M 27.828125 0 "/></g></g></g><g fill="#38b6ff" fill-opacity="1"><g transform="translate(66.994397, 181.577023)"><g><path d="M 1.90625 0 L 1.90625 -26.703125 L 19.921875 -26.703125 L 19.921875 -23.125 L 5.5 -23.125 L 5.5 -15.421875 L 16.296875 -15.421875 L 16.296875 -11.796875 L 5.5 -11.796875 L 5.5 -3.625 L 19.921875 -3.625 L 19.921875 0 Z M 1.90625 0 "/></g></g></g><g fill="#38b6ff" fill-opacity="1"><g transform="translate(88.243713, 181.577023)"><g><path d="M 10.796875 -9.46875 L 16.453125 0 L 12.40625 0 L 8.8125 -6.0625 L 8.78125 -6.0625 L 5.1875 0 L 1.140625 0 L 6.75 -9.46875 L 6.75 -9.5 L 1.140625 -18.921875 L 5.1875 -18.921875 L 8.78125 -12.890625 L 8.8125 -12.890625 L 12.40625 -18.921875 L 16.453125 -18.921875 L 10.796875 -9.5 Z M 10.796875 -9.46875 "/></g></g></g><g fill="#38b6ff" fill-opacity="1"><g transform="translate(105.83067, 181.577023)"><g><path d="M 9.953125 -15.296875 C 9.035156 -15.296875 8.242188 -15.222656 7.578125 -15.078125 C 6.921875 -14.941406 6.382812 -14.671875 5.96875 -14.265625 C 5.550781 -13.859375 5.238281 -13.273438 5.03125 -12.515625 C 4.832031 -11.753906 4.734375 -10.765625 4.734375 -9.546875 C 4.734375 -8.140625 4.851562 -7.03125 5.09375 -6.21875 C 5.332031 -5.40625 5.675781 -4.800781 6.125 -4.40625 C 6.570312 -4.007812 7.117188 -3.757812 7.765625 -3.65625 C 8.410156 -3.5625 9.140625 -3.515625 9.953125 -3.515625 C 10.585938 -3.515625 11.171875 -3.535156 11.703125 -3.578125 C 12.242188 -3.628906 12.722656 -3.75 13.140625 -3.9375 C 13.566406 -4.132812 13.925781 -4.421875 14.21875 -4.796875 C 14.507812 -5.179688 14.742188 -5.707031 14.921875 -6.375 L 18.578125 -6.375 C 18.328125 -4.976562 17.898438 -3.851562 17.296875 -3 C 16.703125 -2.144531 16.007812 -1.488281 15.21875 -1.03125 C 14.4375 -0.570312 13.585938 -0.269531 12.671875 -0.125 C 11.753906 0.0078125 10.847656 0.078125 9.953125 0.078125 C 8.941406 0.078125 7.910156 -0.0195312 6.859375 -0.21875 C 5.816406 -0.425781 4.867188 -0.851562 4.015625 -1.5 C 3.171875 -2.15625 2.476562 -3.109375 1.9375 -4.359375 C 1.40625 -5.617188 1.140625 -7.296875 1.140625 -9.390625 C 1.140625 -11.492188 1.40625 -13.171875 1.9375 -14.421875 C 2.476562 -15.671875 3.171875 -16.625 4.015625 -17.28125 C 4.867188 -17.945312 5.816406 -18.378906 6.859375 -18.578125 C 7.910156 -18.785156 8.941406 -18.890625 9.953125 -18.890625 C 10.847656 -18.890625 11.753906 -18.8125 12.671875 -18.65625 C 13.585938 -18.5 14.445312 -18.191406 15.25 -17.734375 C 16.050781 -17.285156 16.742188 -16.628906 17.328125 -15.765625 C 17.910156 -14.898438 18.328125 -13.753906 18.578125 -12.328125 L 14.953125 -12.328125 C 14.648438 -13.566406 14.097656 -14.367188 13.296875 -14.734375 C 12.492188 -15.109375 11.378906 -15.296875 9.953125 -15.296875 Z M 9.953125 -15.296875 "/></g></g></g><g fill="#38b6ff" fill-opacity="1"><g transform="translate(125.554002, 181.577023)"><g><path d="M 10.109375 -18.8125 C 11.765625 -18.8125 13.171875 -18.53125 14.328125 -17.96875 C 15.484375 -17.40625 16.410156 -16.625 17.109375 -15.625 C 17.804688 -14.625 18.289062 -13.4375 18.5625 -12.0625 C 18.832031 -10.6875 18.898438 -9.195312 18.765625 -7.59375 L 4.765625 -7.59375 C 4.765625 -6.695312 4.90625 -5.96875 5.1875 -5.40625 C 5.46875 -4.851562 5.847656 -4.421875 6.328125 -4.109375 C 6.816406 -3.804688 7.363281 -3.597656 7.96875 -3.484375 C 8.582031 -3.367188 9.234375 -3.3125 9.921875 -3.3125 C 10.398438 -3.3125 10.894531 -3.332031 11.40625 -3.375 C 11.914062 -3.414062 12.382812 -3.503906 12.8125 -3.640625 C 13.25 -3.785156 13.640625 -3.992188 13.984375 -4.265625 C 14.328125 -4.546875 14.5625 -4.929688 14.6875 -5.421875 L 18.359375 -5.421875 C 18.097656 -4.398438 17.707031 -3.539062 17.1875 -2.84375 C 16.664062 -2.144531 16.039062 -1.578125 15.3125 -1.140625 C 14.59375 -0.710938 13.78125 -0.394531 12.875 -0.1875 C 11.96875 0.0078125 11.007812 0.109375 10 0.109375 C 6.914062 0.109375 4.664062 -0.6875 3.25 -2.28125 C 1.84375 -3.882812 1.140625 -6.238281 1.140625 -9.34375 C 1.140625 -10.71875 1.320312 -11.984375 1.6875 -13.140625 C 2.0625 -14.296875 2.617188 -15.296875 3.359375 -16.140625 C 4.097656 -16.984375 5.023438 -17.640625 6.140625 -18.109375 C 7.265625 -18.578125 8.585938 -18.8125 10.109375 -18.8125 Z M 15.21875 -10.953125 C 15.195312 -11.253906 15.132812 -11.664062 15.03125 -12.1875 C 14.925781 -12.707031 14.703125 -13.21875 14.359375 -13.71875 C 14.015625 -14.21875 13.507812 -14.644531 12.84375 -15 C 12.1875 -15.351562 11.289062 -15.53125 10.15625 -15.53125 C 9.101562 -15.53125 8.234375 -15.375 7.546875 -15.0625 C 6.867188 -14.757812 6.316406 -14.378906 5.890625 -13.921875 C 5.472656 -13.460938 5.179688 -12.96875 5.015625 -12.4375 C 4.847656 -11.90625 4.765625 -11.410156 4.765625 -10.953125 Z M 15.21875 -10.953125 "/></g></g></g><g fill="#38b6ff" fill-opacity="1"><g transform="translate(145.544388, 181.577023)"><g><path d="M 1.90625 -26.703125 L 5.5 -26.703125 L 5.5 0 L 1.90625 0 Z M 1.90625 -26.703125 "/></g></g></g><g fill="#38b6ff" fill-opacity="1"><g transform="translate(152.94541, 181.577023)"><g><path d="M 1.90625 -26.703125 L 5.5 -26.703125 L 5.5 0 L 1.90625 0 Z M 1.90625 -26.703125 "/></g></g></g><g fill="#38b6ff" fill-opacity="1"><g transform="translate(160.346431, 181.577023)"><g><path d="M 10.109375 -18.8125 C 11.765625 -18.8125 13.171875 -18.53125 14.328125 -17.96875 C 15.484375 -17.40625 16.410156 -16.625 17.109375 -15.625 C 17.804688 -14.625 18.289062 -13.4375 18.5625 -12.0625 C 18.832031 -10.6875 18.898438 -9.195312 18.765625 -7.59375 L 4.765625 -7.59375 C 4.765625 -6.695312 4.90625 -5.96875 5.1875 -5.40625 C 5.46875 -4.851562 5.847656 -4.421875 6.328125 -4.109375 C 6.816406 -3.804688 7.363281 -3.597656 7.96875 -3.484375 C 8.582031 -3.367188 9.234375 -3.3125 9.921875 -3.3125 C 10.398438 -3.3125 10.894531 -3.332031 11.40625 -3.375 C 11.914062 -3.414062 12.382812 -3.503906 12.8125 -3.640625 C 13.25 -3.785156 13.640625 -3.992188 13.984375 -4.265625 C 14.328125 -4.546875 14.5625 -4.929688 14.6875 -5.421875 L 18.359375 -5.421875 C 18.097656 -4.398438 17.707031 -3.539062 17.1875 -2.84375 C 16.664062 -2.144531 16.039062 -1.578125 15.3125 -1.140625 C 14.59375 -0.710938 13.78125 -0.394531 12.875 -0.1875 C 11.96875 0.0078125 11.007812 0.109375 10 0.109375 C 6.914062 0.109375 4.664062 -0.6875 3.25 -2.28125 C 1.84375 -3.882812 1.140625 -6.238281 1.140625 -9.34375 C 1.140625 -10.71875 1.320312 -11.984375 1.6875 -13.140625 C 2.0625 -14.296875 2.617188 -15.296875 3.359375 -16.140625 C 4.097656 -16.984375 5.023438 -17.640625 6.140625 -18.109375 C 7.265625 -18.578125 8.585938 -18.8125 10.109375 -18.8125 Z M 15.21875 -10.953125 C 15.195312 -11.253906 15.132812 -11.664062 15.03125 -12.1875 C 14.925781 -12.707031 14.703125 -13.21875 14.359375 -13.71875 C 14.015625 -14.21875 13.507812 -14.644531 12.84375 -15 C 12.1875 -15.351562 11.289062 -15.53125 10.15625 -15.53125 C 9.101562 -15.53125 8.234375 -15.375 7.546875 -15.0625 C 6.867188 -14.757812 6.316406 -14.378906 5.890625 -13.921875 C 5.472656 -13.460938 5.179688 -12.96875 5.015625 -12.4375 C 4.847656 -11.90625 4.765625 -11.410156 4.765625 -10.953125 Z M 15.21875 -10.953125 "/></g></g></g><g fill="#38b6ff" fill-opacity="1"><g transform="translate(180.336817, 181.577023)"><g><path d="M 1.90625 0 L 1.90625 -18.921875 L 5.640625 -18.921875 L 5.640625 -16.78125 L 5.71875 -16.78125 C 6.101562 -17.375 6.785156 -17.882812 7.765625 -18.3125 C 8.742188 -18.75 9.84375 -18.96875 11.0625 -18.96875 C 12.101562 -18.96875 13.144531 -18.863281 14.1875 -18.65625 C 15.238281 -18.457031 16.195312 -18.023438 17.0625 -17.359375 C 17.925781 -16.703125 18.625 -15.75 19.15625 -14.5 C 19.6875 -13.25 19.953125 -11.570312 19.953125 -9.46875 L 19.953125 0 L 16.140625 0 L 16.140625 -9.203125 C 16.140625 -10.441406 16.035156 -11.460938 15.828125 -12.265625 C 15.628906 -13.066406 15.316406 -13.695312 14.890625 -14.15625 C 14.472656 -14.613281 13.941406 -14.929688 13.296875 -15.109375 C 12.648438 -15.285156 11.894531 -15.375 11.03125 -15.375 C 10.132812 -15.375 9.34375 -15.285156 8.65625 -15.109375 C 7.96875 -14.929688 7.394531 -14.613281 6.9375 -14.15625 C 6.476562 -13.695312 6.128906 -13.09375 5.890625 -12.34375 C 5.648438 -11.59375 5.53125 -10.644531 5.53125 -9.5 L 5.53125 0 Z M 1.90625 0 "/></g></g></g><g fill="#38b6ff" fill-opacity="1"><g transform="translate(201.815027, 181.577023)"><g><path d="M 9.953125 -15.296875 C 9.035156 -15.296875 8.242188 -15.222656 7.578125 -15.078125 C 6.921875 -14.941406 6.382812 -14.671875 5.96875 -14.265625 C 5.550781 -13.859375 5.238281 -13.273438 5.03125 -12.515625 C 4.832031 -11.753906 4.734375 -10.765625 4.734375 -9.546875 C 4.734375 -8.140625 4.851562 -7.03125 5.09375 -6.21875 C 5.332031 -5.40625 5.675781 -4.800781 6.125 -4.40625 C 6.570312 -4.007812 7.117188 -3.757812 7.765625 -3.65625 C 8.410156 -3.5625 9.140625 -3.515625 9.953125 -3.515625 C 10.585938 -3.515625 11.171875 -3.535156 11.703125 -3.578125 C 12.242188 -3.628906 12.722656 -3.75 13.140625 -3.9375 C 13.566406 -4.132812 13.925781 -4.421875 14.21875 -4.796875 C 14.507812 -5.179688 14.742188 -5.707031 14.921875 -6.375 L 18.578125 -6.375 C 18.328125 -4.976562 17.898438 -3.851562 17.296875 -3 C 16.703125 -2.144531 16.007812 -1.488281 15.21875 -1.03125 C 14.4375 -0.570312 13.585938 -0.269531 12.671875 -0.125 C 11.753906 0.0078125 10.847656 0.078125 9.953125 0.078125 C 8.941406 0.078125 7.910156 -0.0195312 6.859375 -0.21875 C 5.816406 -0.425781 4.867188 -0.851562 4.015625 -1.5 C 3.171875 -2.15625 2.476562 -3.109375 1.9375 -4.359375 C 1.40625 -5.617188 1.140625 -7.296875 1.140625 -9.390625 C 1.140625 -11.492188 1.40625 -13.171875 1.9375 -14.421875 C 2.476562 -15.671875 3.171875 -16.625 4.015625 -17.28125 C 4.867188 -17.945312 5.816406 -18.378906 6.859375 -18.578125 C 7.910156 -18.785156 8.941406 -18.890625 9.953125 -18.890625 C 10.847656 -18.890625 11.753906 -18.8125 12.671875 -18.65625 C 13.585938 -18.5 14.445312 -18.191406 15.25 -17.734375 C 16.050781 -17.285156 16.742188 -16.628906 17.328125 -15.765625 C 17.910156 -14.898438 18.328125 -13.753906 18.578125 -12.328125 L 14.953125 -12.328125 C 14.648438 -13.566406 14.097656 -14.367188 13.296875 -14.734375 C 12.492188 -15.109375 11.378906 -15.296875 9.953125 -15.296875 Z M 9.953125 -15.296875 "/></g></g></g><g fill="#38b6ff" fill-opacity="1"><g transform="translate(221.538359, 181.577023)"><g><path d="M 10.109375 -18.8125 C 11.765625 -18.8125 13.171875 -18.53125 14.328125 -17.96875 C 15.484375 -17.40625 16.410156 -16.625 17.109375 -15.625 C 17.804688 -14.625 18.289062 -13.4375 18.5625 -12.0625 C 18.832031 -10.6875 18.898438 -9.195312 18.765625 -7.59375 L 4.765625 -7.59375 C 4.765625 -6.695312 4.90625 -5.96875 5.1875 -5.40625 C 5.46875 -4.851562 5.847656 -4.421875 6.328125 -4.109375 C 6.816406 -3.804688 7.363281 -3.597656 7.96875 -3.484375 C 8.582031 -3.367188 9.234375 -3.3125 9.921875 -3.3125 C 10.398438 -3.3125 10.894531 -3.332031 11.40625 -3.375 C 11.914062 -3.414062 12.382812 -3.503906 12.8125 -3.640625 C 13.25 -3.785156 13.640625 -3.992188 13.984375 -4.265625 C 14.328125 -4.546875 14.5625 -4.929688 14.6875 -5.421875 L 18.359375 -5.421875 C 18.097656 -4.398438 17.707031 -3.539062 17.1875 -2.84375 C 16.664062 -2.144531 16.039062 -1.578125 15.3125 -1.140625 C 14.59375 -0.710938 13.78125 -0.394531 12.875 -0.1875 C 11.96875 0.0078125 11.007812 0.109375 10 0.109375 C 6.914062 0.109375 4.664062 -0.6875 3.25 -2.28125 C 1.84375 -3.882812 1.140625 -6.238281 1.140625 -9.34375 C 1.140625 -10.71875 1.320312 -11.984375 1.6875 -13.140625 C 2.0625 -14.296875 2.617188 -15.296875 3.359375 -16.140625 C 4.097656 -16.984375 5.023438 -17.640625 6.140625 -18.109375 C 7.265625 -18.578125 8.585938 -18.8125 10.109375 -18.8125 Z M 15.21875 -10.953125 C 15.195312 -11.253906 15.132812 -11.664062 15.03125 -12.1875 C 14.925781 -12.707031 14.703125 -13.21875 14.359375 -13.71875 C 14.015625 -14.21875 13.507812 -14.644531 12.84375 -15 C 12.1875 -15.351562 11.289062 -15.53125 10.15625 -15.53125 C 9.101562 -15.53125 8.234375 -15.375 7.546875 -15.0625 C 6.867188 -14.757812 6.316406 -14.378906 5.890625 -13.921875 C 5.472656 -13.460938 5.179688 -12.96875 5.015625 -12.4375 C 4.847656 -11.90625 4.765625 -11.410156 4.765625 -10.953125 Z M 15.21875 -10.953125 "/></g></g></g><g fill="#38b6ff" fill-opacity="1"><g transform="translate(241.528745, 181.577023)"><g/></g></g><g fill="#38b6ff" fill-opacity="1"><g transform="translate(252.401376, 181.577023)"><g><path d="M 4.34375 -26.703125 L 16.453125 -26.703125 L 16.453125 -23.125 L 7.9375 -23.125 L 7.9375 -18.921875 L 14.3125 -18.921875 L 14.3125 -15.34375 L 7.9375 -15.34375 L 7.9375 0 L 4.34375 0 L 4.34375 -15.34375 L 1.140625 -15.34375 L 1.140625 -18.921875 L 4.34375 -18.921875 Z M 4.34375 -26.703125 "/></g></g></g><g fill="#38b6ff" fill-opacity="1"><g transform="translate(270.179083, 181.577023)"><g><path d="M 10 -18.921875 C 11.039062 -18.921875 12.082031 -18.816406 13.125 -18.609375 C 14.164062 -18.410156 15.113281 -17.988281 15.96875 -17.34375 C 16.820312 -16.695312 17.515625 -15.75 18.046875 -14.5 C 18.578125 -13.25 18.84375 -11.570312 18.84375 -9.46875 C 18.84375 -7.351562 18.578125 -5.671875 18.046875 -4.421875 C 17.515625 -3.179688 16.820312 -2.226562 15.96875 -1.5625 C 15.113281 -0.90625 14.164062 -0.472656 13.125 -0.265625 C 12.082031 -0.0664062 11.039062 0.03125 10 0.03125 C 8.976562 0.03125 7.9375 -0.0664062 6.875 -0.265625 C 5.820312 -0.472656 4.867188 -0.90625 4.015625 -1.5625 C 3.171875 -2.226562 2.476562 -3.179688 1.9375 -4.421875 C 1.40625 -5.671875 1.140625 -7.351562 1.140625 -9.46875 C 1.140625 -11.570312 1.40625 -13.25 1.9375 -14.5 C 2.476562 -15.75 3.171875 -16.695312 4.015625 -17.34375 C 4.867188 -17.988281 5.820312 -18.410156 6.875 -18.609375 C 7.9375 -18.816406 8.976562 -18.921875 10 -18.921875 Z M 10 -3.546875 C 10.8125 -3.546875 11.539062 -3.597656 12.1875 -3.703125 C 12.832031 -3.804688 13.378906 -4.050781 13.828125 -4.4375 C 14.273438 -4.832031 14.617188 -5.4375 14.859375 -6.25 C 15.097656 -7.070312 15.21875 -8.179688 15.21875 -9.578125 C 15.21875 -10.828125 15.113281 -11.828125 14.90625 -12.578125 C 14.707031 -13.328125 14.398438 -13.90625 13.984375 -14.3125 C 13.566406 -14.71875 13.023438 -14.988281 12.359375 -15.125 C 11.703125 -15.269531 10.914062 -15.34375 10 -15.34375 C 9.082031 -15.34375 8.285156 -15.269531 7.609375 -15.125 C 6.929688 -14.988281 6.382812 -14.71875 5.96875 -14.3125 C 5.550781 -13.90625 5.238281 -13.328125 5.03125 -12.578125 C 4.832031 -11.828125 4.734375 -10.828125 4.734375 -9.578125 C 4.734375 -8.179688 4.851562 -7.070312 5.09375 -6.25 C 5.332031 -5.4375 5.679688 -4.832031 6.140625 -4.4375 C 6.597656 -4.050781 7.148438 -3.804688 7.796875 -3.703125 C 8.453125 -3.597656 9.1875 -3.546875 10 -3.546875 Z M 10 -3.546875 "/></g></g></g><g fill="#38b6ff" fill-opacity="1"><g transform="translate(290.169468, 181.577023)"><g><path d="M 13.8125 -18.921875 L 13.8125 -15.34375 L 5.5 -15.34375 L 5.5 0 L 1.90625 0 L 1.90625 -18.921875 Z M 13.8125 -18.921875 "/></g></g></g><g fill="#38b6ff" fill-opacity="1"><g transform="translate(305.314852, 181.577023)"><g/></g></g><g fill="#38b6ff" fill-opacity="1"><g transform="translate(316.187483, 181.577023)"><g><path d="M 5.765625 -20.03125 C 5.765625 -19.0625 6.128906 -18.320312 6.859375 -17.8125 C 7.597656 -17.3125 8.519531 -16.878906 9.625 -16.515625 C 10.738281 -16.160156 11.9375 -15.816406 13.21875 -15.484375 C 14.5 -15.160156 15.679688 -14.703125 16.765625 -14.109375 C 17.847656 -13.523438 18.738281 -12.738281 19.4375 -11.75 C 20.132812 -10.757812 20.457031 -9.410156 20.40625 -7.703125 C 20.382812 -7.171875 20.285156 -6.457031 20.109375 -5.5625 C 19.929688 -4.675781 19.53125 -3.804688 18.90625 -2.953125 C 18.28125 -2.097656 17.375 -1.359375 16.1875 -0.734375 C 15.007812 -0.117188 13.40625 0.1875 11.375 0.1875 C 9.820312 0.1875 8.410156 -0.0195312 7.140625 -0.4375 C 5.867188 -0.851562 4.789062 -1.457031 3.90625 -2.25 C 3.03125 -3.039062 2.347656 -4.007812 1.859375 -5.15625 C 1.378906 -6.300781 1.140625 -7.597656 1.140625 -9.046875 L 1.140625 -9.578125 L 4.6875 -9.578125 C 4.894531 -7.441406 5.535156 -5.882812 6.609375 -4.90625 C 7.691406 -3.925781 9.148438 -3.4375 10.984375 -3.4375 C 11.648438 -3.4375 12.328125 -3.484375 13.015625 -3.578125 C 13.703125 -3.679688 14.320312 -3.882812 14.875 -4.1875 C 15.4375 -4.5 15.894531 -4.914062 16.25 -5.4375 C 16.601562 -5.957031 16.78125 -6.640625 16.78125 -7.484375 C 16.78125 -8.722656 16.414062 -9.664062 15.6875 -10.3125 C 14.96875 -10.96875 14.066406 -11.492188 12.984375 -11.890625 C 11.910156 -12.285156 10.738281 -12.617188 9.46875 -12.890625 C 8.195312 -13.171875 7.019531 -13.566406 5.9375 -14.078125 C 4.851562 -14.585938 3.945312 -15.285156 3.21875 -16.171875 C 2.5 -17.066406 2.140625 -18.316406 2.140625 -19.921875 C 2.140625 -21.035156 2.34375 -22.035156 2.75 -22.921875 C 3.15625 -23.816406 3.726562 -24.566406 4.46875 -25.171875 C 5.207031 -25.785156 6.097656 -26.25 7.140625 -26.5625 C 8.179688 -26.882812 9.335938 -27.046875 10.609375 -27.046875 C 13.222656 -27.046875 15.332031 -26.363281 16.9375 -25 C 18.539062 -23.644531 19.40625 -21.671875 19.53125 -19.078125 L 15.984375 -19.078125 C 15.703125 -20.679688 15.113281 -21.8125 14.21875 -22.46875 C 13.332031 -23.132812 12.164062 -23.46875 10.71875 -23.46875 C 9.269531 -23.46875 8.082031 -23.179688 7.15625 -22.609375 C 6.226562 -22.035156 5.765625 -21.175781 5.765625 -20.03125 Z M 5.765625 -20.03125 "/></g></g></g><g fill="#38b6ff" fill-opacity="1"><g transform="translate(337.780155, 181.577023)"><g><path d="M 10.109375 -18.8125 C 11.765625 -18.8125 13.171875 -18.53125 14.328125 -17.96875 C 15.484375 -17.40625 16.410156 -16.625 17.109375 -15.625 C 17.804688 -14.625 18.289062 -13.4375 18.5625 -12.0625 C 18.832031 -10.6875 18.898438 -9.195312 18.765625 -7.59375 L 4.765625 -7.59375 C 4.765625 -6.695312 4.90625 -5.96875 5.1875 -5.40625 C 5.46875 -4.851562 5.847656 -4.421875 6.328125 -4.109375 C 6.816406 -3.804688 7.363281 -3.597656 7.96875 -3.484375 C 8.582031 -3.367188 9.234375 -3.3125 9.921875 -3.3125 C 10.398438 -3.3125 10.894531 -3.332031 11.40625 -3.375 C 11.914062 -3.414062 12.382812 -3.503906 12.8125 -3.640625 C 13.25 -3.785156 13.640625 -3.992188 13.984375 -4.265625 C 14.328125 -4.546875 14.5625 -4.929688 14.6875 -5.421875 L 18.359375 -5.421875 C 18.097656 -4.398438 17.707031 -3.539062 17.1875 -2.84375 C 16.664062 -2.144531 16.039062 -1.578125 15.3125 -1.140625 C 14.59375 -0.710938 13.78125 -0.394531 12.875 -0.1875 C 11.96875 0.0078125 11.007812 0.109375 10 0.109375 C 6.914062 0.109375 4.664062 -0.6875 3.25 -2.28125 C 1.84375 -3.882812 1.140625 -6.238281 1.140625 -9.34375 C 1.140625 -10.71875 1.320312 -11.984375 1.6875 -13.140625 C 2.0625 -14.296875 2.617188 -15.296875 3.359375 -16.140625 C 4.097656 -16.984375 5.023438 -17.640625 6.140625 -18.109375 C 7.265625 -18.578125 8.585938 -18.8125 10.109375 -18.8125 Z M 15.21875 -10.953125 C 15.195312 -11.253906 15.132812 -11.664062 15.03125 -12.1875 C 14.925781 -12.707031 14.703125 -13.21875 14.359375 -13.71875 C 14.015625 -14.21875 13.507812 -14.644531 12.84375 -15 C 12.1875 -15.351562 11.289062 -15.53125 10.15625 -15.53125 C 9.101562 -15.53125 8.234375 -15.375 7.546875 -15.0625 C 6.867188 -14.757812 6.316406 -14.378906 5.890625 -13.921875 C 5.472656 -13.460938 5.179688 -12.96875 5.015625 -12.4375 C 4.847656 -11.90625 4.765625 -11.410156 4.765625 -10.953125 Z M 15.21875 -10.953125 "/></g></g></g><g fill="#38b6ff" fill-opacity="1"><g transform="translate(357.770525, 181.577023)"><g><path d="M 9.953125 -15.296875 C 9.035156 -15.296875 8.242188 -15.222656 7.578125 -15.078125 C 6.921875 -14.941406 6.382812 -14.671875 5.96875 -14.265625 C 5.550781 -13.859375 5.238281 -13.273438 5.03125 -12.515625 C 4.832031 -11.753906 4.734375 -10.765625 4.734375 -9.546875 C 4.734375 -8.140625 4.851562 -7.03125 5.09375 -6.21875 C 5.332031 -5.40625 5.675781 -4.800781 6.125 -4.40625 C 6.570312 -4.007812 7.117188 -3.757812 7.765625 -3.65625 C 8.410156 -3.5625 9.140625 -3.515625 9.953125 -3.515625 C 10.585938 -3.515625 11.171875 -3.535156 11.703125 -3.578125 C 12.242188 -3.628906 12.722656 -3.75 13.140625 -3.9375 C 13.566406 -4.132812 13.925781 -4.421875 14.21875 -4.796875 C 14.507812 -5.179688 14.742188 -5.707031 14.921875 -6.375 L 18.578125 -6.375 C 18.328125 -4.976562 17.898438 -3.851562 17.296875 -3 C 16.703125 -2.144531 16.007812 -1.488281 15.21875 -1.03125 C 14.4375 -0.570312 13.585938 -0.269531 12.671875 -0.125 C 11.753906 0.0078125 10.847656 0.078125 9.953125 0.078125 C 8.941406 0.078125 7.910156 -0.0195312 6.859375 -0.21875 C 5.816406 -0.425781 4.867188 -0.851562 4.015625 -1.5 C 3.171875 -2.15625 2.476562 -3.109375 1.9375 -4.359375 C 1.40625 -5.617188 1.140625 -7.296875 1.140625 -9.390625 C 1.140625 -11.492188 1.40625 -13.171875 1.9375 -14.421875 C 2.476562 -15.671875 3.171875 -16.625 4.015625 -17.28125 C 4.867188 -17.945312 5.816406 -18.378906 6.859375 -18.578125 C 7.910156 -18.785156 8.941406 -18.890625 9.953125 -18.890625 C 10.847656 -18.890625 11.753906 -18.8125 12.671875 -18.65625 C 13.585938 -18.5 14.445312 -18.191406 15.25 -17.734375 C 16.050781 -17.285156 16.742188 -16.628906 17.328125 -15.765625 C 17.910156 -14.898438 18.328125 -13.753906 18.578125 -12.328125 L 14.953125 -12.328125 C 14.648438 -13.566406 14.097656 -14.367188 13.296875 -14.734375 C 12.492188 -15.109375 11.378906 -15.296875 9.953125 -15.296875 Z M 9.953125 -15.296875 "/></g></g></g><g fill="#38b6ff" fill-opacity="1"><g transform="translate(377.493873, 181.577023)"><g><path d="M 13.8125 -18.921875 L 17.40625 -18.921875 L 17.40625 0 L 1.90625 0 L 1.90625 -18.921875 L 5.5 -18.921875 L 5.5 -3.59375 L 13.8125 -3.59375 Z M 13.8125 -18.921875 "/></g></g></g><g fill="#38b6ff" fill-opacity="1"><g transform="translate(396.797563, 181.577023)"><g><path d="M 13.8125 -18.921875 L 13.8125 -15.34375 L 5.5 -15.34375 L 5.5 0 L 1.90625 0 L 1.90625 -18.921875 Z M 13.8125 -18.921875 "/></g></g></g><g fill="#38b6ff" fill-opacity="1"><g transform="translate(411.942947, 181.577023)"><g><path d="M 1.90625 -19.078125 L 5.5 -19.078125 L 5.5 0 L 1.90625 0 Z M 5.5 -26.703125 L 5.5 -23.125 L 1.90625 -23.125 L 1.90625 -26.703125 Z M 5.5 -26.703125 "/></g></g></g><g fill="#38b6ff" fill-opacity="1"><g transform="translate(419.382112, 181.577023)"><g><path d="M 7.9375 -3.59375 L 15.765625 -3.59375 L 15.765625 0 L 4.34375 0 L 4.34375 -15.34375 L 1.140625 -15.34375 L 1.140625 -18.921875 L 4.34375 -18.921875 L 4.34375 -26.703125 L 7.9375 -26.703125 L 7.9375 -18.921875 L 14.3125 -18.921875 L 14.3125 -15.34375 L 7.9375 -15.34375 Z M 7.9375 -3.59375 "/></g></g></g><g fill="#38b6ff" fill-opacity="1"><g transform="translate(436.511281, 181.577023)"><g><path d="M 5.34375 -19 L 5.34375 -9.8125 C 5.34375 -8.5625 5.441406 -7.535156 5.640625 -6.734375 C 5.847656 -5.929688 6.160156 -5.300781 6.578125 -4.84375 C 7.003906 -4.382812 7.539062 -4.066406 8.1875 -3.890625 C 8.832031 -3.710938 9.585938 -3.625 10.453125 -3.625 C 11.347656 -3.625 12.132812 -3.710938 12.8125 -3.890625 C 13.5 -4.066406 14.070312 -4.382812 14.53125 -4.84375 C 14.988281 -5.300781 15.335938 -5.90625 15.578125 -6.65625 C 15.828125 -7.40625 15.953125 -8.351562 15.953125 -9.5 L 15.953125 -19 L 19.578125 -19 L 19.578125 7.75 L 3.390625 7.75 L 3.390625 4.125 L 15.828125 4.125 L 15.828125 -2.21875 L 15.765625 -2.21875 C 15.378906 -1.625 14.695312 -1.109375 13.71875 -0.671875 C 12.738281 -0.242188 11.640625 -0.03125 10.421875 -0.03125 C 9.398438 -0.03125 8.359375 -0.132812 7.296875 -0.34375 C 6.242188 -0.550781 5.285156 -0.984375 4.421875 -1.640625 C 3.554688 -2.296875 2.859375 -3.253906 2.328125 -4.515625 C 1.796875 -5.773438 1.53125 -7.453125 1.53125 -9.546875 L 1.53125 -19 Z M 5.34375 -19 "/></g></g></g></svg>