<svg xmlns="http://www.w3.org/2000/svg" xmlns:xlink="http://www.w3.org/1999/xlink" width="500" zoomAndPan="magnify" viewBox="0 0 375 374.999991" height="500" preserveAspectRatio="xMidYMid meet" version="1.0"><defs><g/></defs><rect x="-37.5" width="450" fill="#ffffff" y="-37.499999" height="449.999989" fill-opacity="1"/><rect x="-37.5" width="450" fill="#ffffff" y="-37.499999" height="449.999989" fill-opacity="1"/><g fill="#737373" fill-opacity="1"><g transform="translate(43.908986, 201.954032)"><g><path d="M 21.734375 0 L 21.734375 -54.6875 L 4.09375 -54.6875 L 4.09375 0 Z M 27.875 0 C 38.625 -3.859375 46.40625 -15.328125 46.40625 -27.3125 C 46.40625 -39.28125 38.625 -50.84375 27.875 -54.6875 Z M 27.875 0 "/></g></g></g><g fill="#737373" fill-opacity="1"><g transform="translate(92.204641, 201.954032)"><g><path d="M 29.609375 -52.0625 L 19.765625 -52.0625 L 19.765625 -42.234375 Z M 39.609375 -18.203125 L 25.90625 -31.890625 L 25.90625 -18.203125 Z M 1.46875 -18.28125 C 1.46875 -28.203125 9.34375 -36 19.765625 -36.484375 L 19.765625 0 C 9.34375 -0.484375 1.46875 -8.28125 1.46875 -18.28125 Z M 1.46875 -18.28125 "/></g></g></g><g fill="#38b6ff" fill-opacity="1"><g transform="translate(130.416792, 201.954032)"><g><path d="M 20.421875 -54.6875 C 9.671875 -50.84375 1.890625 -39.28125 1.890625 -27.3125 C 1.890625 -15.328125 9.671875 -3.859375 20.421875 0 Z M 38.453125 -41 L 38.453125 -54.6875 L 24.765625 -54.6875 Z M 38.453125 -41 "/></g></g></g><g fill="#737373" fill-opacity="1"><g transform="translate(169.205852, 201.954032)"><g><path d="M 3.53125 -36.484375 L 3.53125 -19.765625 C 3.53125 -14.015625 4.421875 -9.4375 8.78125 -5.078125 C 12.140625 -1.71875 15.828125 -0.15625 21.15625 0 L 21.15625 -36.484375 Z M 27.3125 -36.484375 L 27.3125 18.203125 C 32.640625 18.046875 36.328125 16.484375 39.6875 13.125 C 44.03125 8.78125 44.9375 4.1875 44.9375 -1.5625 L 44.9375 -36.484375 Z M 27.3125 -36.484375 "/></g></g></g><g fill="#38b6ff" fill-opacity="1"><g transform="translate(218.002724, 201.954032)"><g><path d="M 38.21875 -41 L 38.21875 -54.6875 L 24.515625 -54.6875 Z M 1.890625 -36.484375 C 1.890625 -26.484375 9.765625 -18.703125 20.171875 -18.203125 L 20.171875 -54.6875 C 9.765625 -54.203125 1.890625 -46.40625 1.890625 -36.484375 Z M 44.609375 -18.28125 C 44.609375 -28.203125 36.734375 -36 26.328125 -36.484375 L 26.328125 0 C 36.734375 -0.484375 44.609375 -8.28125 44.609375 -18.28125 Z M 44.609375 -18.28125 "/></g></g></g><g fill="#737373" fill-opacity="1"><g transform="translate(264.502721, 201.954032)"><g><path d="M 3.859375 -54.6875 L 3.859375 -41 L 17.546875 -54.6875 Z M 21.484375 0 L 21.484375 -36.484375 L 3.859375 -36.484375 L 3.859375 0 Z M 21.484375 0 "/></g></g></g><g fill="#737373" fill-opacity="1"><g transform="translate(289.839492, 201.954032)"><g><path d="M 25.578125 -36.484375 L 39.28125 -22.796875 L 39.28125 -36.484375 Z M 25.578125 -54.6875 L 39.28125 -41 L 39.28125 -54.6875 Z M 21.15625 0 L 21.15625 -54.6875 C 15.828125 -54.53125 12.140625 -52.96875 8.78125 -49.609375 C 4.421875 -45.265625 3.53125 -40.671875 3.53125 -34.9375 L 3.53125 0 Z M 21.15625 0 "/></g></g></g><g fill="#737373" fill-opacity="1"><g transform="translate(39.583207, 243.296118)"><g><path d="M 1.453125 0 L 1.453125 -20.296875 L 15.140625 -20.296875 L 15.140625 -17.578125 L 4.171875 -17.578125 L 4.171875 -11.71875 L 12.390625 -11.71875 L 12.390625 -8.96875 L 4.171875 -8.96875 L 4.171875 -2.75 L 15.140625 -2.75 L 15.140625 0 Z M 1.453125 0 "/></g></g></g><g fill="#737373" fill-opacity="1"><g transform="translate(55.73185, 243.296118)"><g><path d="M 8.203125 -7.1875 L 12.5 0 L 9.421875 0 L 6.703125 -4.609375 L 6.671875 -4.609375 L 3.9375 0 L 0.875 0 L 5.140625 -7.1875 L 5.140625 -7.21875 L 0.875 -14.390625 L 3.9375 -14.390625 L 6.671875 -9.796875 L 6.703125 -9.796875 L 9.421875 -14.390625 L 12.5 -14.390625 L 8.203125 -7.21875 Z M 8.203125 -7.1875 "/></g></g></g><g fill="#737373" fill-opacity="1"><g transform="translate(69.097244, 243.296118)"><g><path d="M 7.5625 -11.625 C 6.875 -11.625 6.273438 -11.570312 5.765625 -11.46875 C 5.265625 -11.363281 4.851562 -11.15625 4.53125 -10.84375 C 4.21875 -10.53125 3.984375 -10.082031 3.828125 -9.5 C 3.671875 -8.925781 3.59375 -8.175781 3.59375 -7.25 C 3.59375 -6.1875 3.679688 -5.34375 3.859375 -4.71875 C 4.046875 -4.101562 4.304688 -3.644531 4.640625 -3.34375 C 4.984375 -3.050781 5.398438 -2.863281 5.890625 -2.78125 C 6.390625 -2.707031 6.945312 -2.671875 7.5625 -2.671875 C 8.050781 -2.671875 8.5 -2.6875 8.90625 -2.71875 C 9.3125 -2.757812 9.671875 -2.851562 9.984375 -3 C 10.304688 -3.144531 10.578125 -3.363281 10.796875 -3.65625 C 11.023438 -3.945312 11.207031 -4.34375 11.34375 -4.84375 L 14.125 -4.84375 C 13.925781 -3.78125 13.597656 -2.925781 13.140625 -2.28125 C 12.691406 -1.632812 12.164062 -1.132812 11.5625 -0.78125 C 10.96875 -0.4375 10.320312 -0.207031 9.625 -0.09375 C 8.925781 0.0078125 8.238281 0.0625 7.5625 0.0625 C 6.789062 0.0625 6.007812 -0.015625 5.21875 -0.171875 C 4.425781 -0.328125 3.707031 -0.648438 3.0625 -1.140625 C 2.414062 -1.640625 1.890625 -2.363281 1.484375 -3.3125 C 1.078125 -4.269531 0.875 -5.546875 0.875 -7.140625 C 0.875 -8.742188 1.078125 -10.019531 1.484375 -10.96875 C 1.890625 -11.914062 2.414062 -12.640625 3.0625 -13.140625 C 3.707031 -13.640625 4.425781 -13.96875 5.21875 -14.125 C 6.007812 -14.28125 6.789062 -14.359375 7.5625 -14.359375 C 8.238281 -14.359375 8.925781 -14.296875 9.625 -14.171875 C 10.320312 -14.054688 10.972656 -13.828125 11.578125 -13.484375 C 12.191406 -13.140625 12.71875 -12.632812 13.15625 -11.96875 C 13.601562 -11.3125 13.925781 -10.441406 14.125 -9.359375 L 11.375 -9.359375 C 11.132812 -10.304688 10.707031 -10.921875 10.09375 -11.203125 C 9.488281 -11.484375 8.644531 -11.625 7.5625 -11.625 Z M 7.5625 -11.625 "/></g></g></g><g fill="#737373" fill-opacity="1"><g transform="translate(84.086199, 243.296118)"><g><path d="M 7.6875 -14.296875 C 8.9375 -14.296875 10 -14.082031 10.875 -13.65625 C 11.757812 -13.226562 12.46875 -12.632812 13 -11.875 C 13.53125 -11.113281 13.894531 -10.207031 14.09375 -9.15625 C 14.300781 -8.113281 14.359375 -6.984375 14.265625 -5.765625 L 3.625 -5.765625 C 3.625 -5.085938 3.726562 -4.535156 3.9375 -4.109375 C 4.15625 -3.691406 4.445312 -3.363281 4.8125 -3.125 C 5.175781 -2.894531 5.585938 -2.734375 6.046875 -2.640625 C 6.515625 -2.554688 7.015625 -2.515625 7.546875 -2.515625 C 7.910156 -2.515625 8.285156 -2.53125 8.671875 -2.5625 C 9.054688 -2.59375 9.410156 -2.660156 9.734375 -2.765625 C 10.066406 -2.867188 10.363281 -3.023438 10.625 -3.234375 C 10.882812 -3.453125 11.066406 -3.75 11.171875 -4.125 L 13.953125 -4.125 C 13.753906 -3.34375 13.457031 -2.6875 13.0625 -2.15625 C 12.664062 -1.625 12.191406 -1.191406 11.640625 -0.859375 C 11.085938 -0.535156 10.46875 -0.296875 9.78125 -0.140625 C 9.101562 0.015625 8.375 0.09375 7.59375 0.09375 C 5.257812 0.09375 3.554688 -0.515625 2.484375 -1.734375 C 1.410156 -2.953125 0.875 -4.742188 0.875 -7.109375 C 0.875 -8.148438 1.015625 -9.109375 1.296875 -9.984375 C 1.578125 -10.867188 1.992188 -11.628906 2.546875 -12.265625 C 3.109375 -12.898438 3.8125 -13.394531 4.65625 -13.75 C 5.507812 -14.113281 6.519531 -14.296875 7.6875 -14.296875 Z M 11.578125 -8.328125 C 11.554688 -8.554688 11.503906 -8.867188 11.421875 -9.265625 C 11.347656 -9.660156 11.179688 -10.046875 10.921875 -10.421875 C 10.660156 -10.796875 10.273438 -11.117188 9.765625 -11.390625 C 9.265625 -11.660156 8.582031 -11.796875 7.71875 -11.796875 C 6.925781 -11.796875 6.265625 -11.679688 5.734375 -11.453125 C 5.210938 -11.222656 4.789062 -10.929688 4.46875 -10.578125 C 4.15625 -10.234375 3.9375 -9.859375 3.8125 -9.453125 C 3.6875 -9.046875 3.625 -8.671875 3.625 -8.328125 Z M 11.578125 -8.328125 "/></g></g></g><g fill="#737373" fill-opacity="1"><g transform="translate(99.278104, 243.296118)"><g><path d="M 1.453125 -20.296875 L 4.171875 -20.296875 L 4.171875 0 L 1.453125 0 Z M 1.453125 -20.296875 "/></g></g></g><g fill="#737373" fill-opacity="1"><g transform="translate(104.902589, 243.296118)"><g><path d="M 1.453125 -20.296875 L 4.171875 -20.296875 L 4.171875 0 L 1.453125 0 Z M 1.453125 -20.296875 "/></g></g></g><g fill="#737373" fill-opacity="1"><g transform="translate(110.527074, 243.296118)"><g><path d="M 7.6875 -14.296875 C 8.9375 -14.296875 10 -14.082031 10.875 -13.65625 C 11.757812 -13.226562 12.46875 -12.632812 13 -11.875 C 13.53125 -11.113281 13.894531 -10.207031 14.09375 -9.15625 C 14.300781 -8.113281 14.359375 -6.984375 14.265625 -5.765625 L 3.625 -5.765625 C 3.625 -5.085938 3.726562 -4.535156 3.9375 -4.109375 C 4.15625 -3.691406 4.445312 -3.363281 4.8125 -3.125 C 5.175781 -2.894531 5.585938 -2.734375 6.046875 -2.640625 C 6.515625 -2.554688 7.015625 -2.515625 7.546875 -2.515625 C 7.910156 -2.515625 8.285156 -2.53125 8.671875 -2.5625 C 9.054688 -2.59375 9.410156 -2.660156 9.734375 -2.765625 C 10.066406 -2.867188 10.363281 -3.023438 10.625 -3.234375 C 10.882812 -3.453125 11.066406 -3.75 11.171875 -4.125 L 13.953125 -4.125 C 13.753906 -3.34375 13.457031 -2.6875 13.0625 -2.15625 C 12.664062 -1.625 12.191406 -1.191406 11.640625 -0.859375 C 11.085938 -0.535156 10.46875 -0.296875 9.78125 -0.140625 C 9.101562 0.015625 8.375 0.09375 7.59375 0.09375 C 5.257812 0.09375 3.554688 -0.515625 2.484375 -1.734375 C 1.410156 -2.953125 0.875 -4.742188 0.875 -7.109375 C 0.875 -8.148438 1.015625 -9.109375 1.296875 -9.984375 C 1.578125 -10.867188 1.992188 -11.628906 2.546875 -12.265625 C 3.109375 -12.898438 3.8125 -13.394531 4.65625 -13.75 C 5.507812 -14.113281 6.519531 -14.296875 7.6875 -14.296875 Z M 11.578125 -8.328125 C 11.554688 -8.554688 11.503906 -8.867188 11.421875 -9.265625 C 11.347656 -9.660156 11.179688 -10.046875 10.921875 -10.421875 C 10.660156 -10.796875 10.273438 -11.117188 9.765625 -11.390625 C 9.265625 -11.660156 8.582031 -11.796875 7.71875 -11.796875 C 6.925781 -11.796875 6.265625 -11.679688 5.734375 -11.453125 C 5.210938 -11.222656 4.789062 -10.929688 4.46875 -10.578125 C 4.15625 -10.234375 3.9375 -9.859375 3.8125 -9.453125 C 3.6875 -9.046875 3.625 -8.671875 3.625 -8.328125 Z M 11.578125 -8.328125 "/></g></g></g><g fill="#737373" fill-opacity="1"><g transform="translate(125.718979, 243.296118)"><g><path d="M 1.453125 0 L 1.453125 -14.390625 L 4.296875 -14.390625 L 4.296875 -12.765625 L 4.34375 -12.765625 C 4.632812 -13.203125 5.148438 -13.582031 5.890625 -13.90625 C 6.640625 -14.238281 7.476562 -14.40625 8.40625 -14.40625 C 9.195312 -14.40625 9.988281 -14.328125 10.78125 -14.171875 C 11.582031 -14.023438 12.3125 -13.695312 12.96875 -13.1875 C 13.625 -12.6875 14.15625 -11.960938 14.5625 -11.015625 C 14.96875 -10.066406 15.171875 -8.789062 15.171875 -7.1875 L 15.171875 0 L 12.265625 0 L 12.265625 -6.984375 C 12.265625 -7.929688 12.1875 -8.707031 12.03125 -9.3125 C 11.875 -9.925781 11.632812 -10.40625 11.3125 -10.75 C 11 -11.101562 10.59375 -11.347656 10.09375 -11.484375 C 9.601562 -11.617188 9.03125 -11.6875 8.375 -11.6875 C 7.695312 -11.6875 7.097656 -11.617188 6.578125 -11.484375 C 6.054688 -11.347656 5.617188 -11.101562 5.265625 -10.75 C 4.921875 -10.40625 4.65625 -9.945312 4.46875 -9.375 C 4.289062 -8.8125 4.203125 -8.09375 4.203125 -7.21875 L 4.203125 0 Z M 1.453125 0 "/></g></g></g><g fill="#737373" fill-opacity="1"><g transform="translate(142.041571, 243.296118)"><g><path d="M 7.5625 -11.625 C 6.875 -11.625 6.273438 -11.570312 5.765625 -11.46875 C 5.265625 -11.363281 4.851562 -11.15625 4.53125 -10.84375 C 4.21875 -10.53125 3.984375 -10.082031 3.828125 -9.5 C 3.671875 -8.925781 3.59375 -8.175781 3.59375 -7.25 C 3.59375 -6.1875 3.679688 -5.34375 3.859375 -4.71875 C 4.046875 -4.101562 4.304688 -3.644531 4.640625 -3.34375 C 4.984375 -3.050781 5.398438 -2.863281 5.890625 -2.78125 C 6.390625 -2.707031 6.945312 -2.671875 7.5625 -2.671875 C 8.050781 -2.671875 8.5 -2.6875 8.90625 -2.71875 C 9.3125 -2.757812 9.671875 -2.851562 9.984375 -3 C 10.304688 -3.144531 10.578125 -3.363281 10.796875 -3.65625 C 11.023438 -3.945312 11.207031 -4.34375 11.34375 -4.84375 L 14.125 -4.84375 C 13.925781 -3.78125 13.597656 -2.925781 13.140625 -2.28125 C 12.691406 -1.632812 12.164062 -1.132812 11.5625 -0.78125 C 10.96875 -0.4375 10.320312 -0.207031 9.625 -0.09375 C 8.925781 0.0078125 8.238281 0.0625 7.5625 0.0625 C 6.789062 0.0625 6.007812 -0.015625 5.21875 -0.171875 C 4.425781 -0.328125 3.707031 -0.648438 3.0625 -1.140625 C 2.414062 -1.640625 1.890625 -2.363281 1.484375 -3.3125 C 1.078125 -4.269531 0.875 -5.546875 0.875 -7.140625 C 0.875 -8.742188 1.078125 -10.019531 1.484375 -10.96875 C 1.890625 -11.914062 2.414062 -12.640625 3.0625 -13.140625 C 3.707031 -13.640625 4.425781 -13.96875 5.21875 -14.125 C 6.007812 -14.28125 6.789062 -14.359375 7.5625 -14.359375 C 8.238281 -14.359375 8.925781 -14.296875 9.625 -14.171875 C 10.320312 -14.054688 10.972656 -13.828125 11.578125 -13.484375 C 12.191406 -13.140625 12.71875 -12.632812 13.15625 -11.96875 C 13.601562 -11.3125 13.925781 -10.441406 14.125 -9.359375 L 11.375 -9.359375 C 11.132812 -10.304688 10.707031 -10.921875 10.09375 -11.203125 C 9.488281 -11.484375 8.644531 -11.625 7.5625 -11.625 Z M 7.5625 -11.625 "/></g></g></g><g fill="#737373" fill-opacity="1"><g transform="translate(157.030527, 243.296118)"><g><path d="M 7.6875 -14.296875 C 8.9375 -14.296875 10 -14.082031 10.875 -13.65625 C 11.757812 -13.226562 12.46875 -12.632812 13 -11.875 C 13.53125 -11.113281 13.894531 -10.207031 14.09375 -9.15625 C 14.300781 -8.113281 14.359375 -6.984375 14.265625 -5.765625 L 3.625 -5.765625 C 3.625 -5.085938 3.726562 -4.535156 3.9375 -4.109375 C 4.15625 -3.691406 4.445312 -3.363281 4.8125 -3.125 C 5.175781 -2.894531 5.585938 -2.734375 6.046875 -2.640625 C 6.515625 -2.554688 7.015625 -2.515625 7.546875 -2.515625 C 7.910156 -2.515625 8.285156 -2.53125 8.671875 -2.5625 C 9.054688 -2.59375 9.410156 -2.660156 9.734375 -2.765625 C 10.066406 -2.867188 10.363281 -3.023438 10.625 -3.234375 C 10.882812 -3.453125 11.066406 -3.75 11.171875 -4.125 L 13.953125 -4.125 C 13.753906 -3.34375 13.457031 -2.6875 13.0625 -2.15625 C 12.664062 -1.625 12.191406 -1.191406 11.640625 -0.859375 C 11.085938 -0.535156 10.46875 -0.296875 9.78125 -0.140625 C 9.101562 0.015625 8.375 0.09375 7.59375 0.09375 C 5.257812 0.09375 3.554688 -0.515625 2.484375 -1.734375 C 1.410156 -2.953125 0.875 -4.742188 0.875 -7.109375 C 0.875 -8.148438 1.015625 -9.109375 1.296875 -9.984375 C 1.578125 -10.867188 1.992188 -11.628906 2.546875 -12.265625 C 3.109375 -12.898438 3.8125 -13.394531 4.65625 -13.75 C 5.507812 -14.113281 6.519531 -14.296875 7.6875 -14.296875 Z M 11.578125 -8.328125 C 11.554688 -8.554688 11.503906 -8.867188 11.421875 -9.265625 C 11.347656 -9.660156 11.179688 -10.046875 10.921875 -10.421875 C 10.660156 -10.796875 10.273438 -11.117188 9.765625 -11.390625 C 9.265625 -11.660156 8.582031 -11.796875 7.71875 -11.796875 C 6.925781 -11.796875 6.265625 -11.679688 5.734375 -11.453125 C 5.210938 -11.222656 4.789062 -10.929688 4.46875 -10.578125 C 4.15625 -10.234375 3.9375 -9.859375 3.8125 -9.453125 C 3.6875 -9.046875 3.625 -8.671875 3.625 -8.328125 Z M 11.578125 -8.328125 "/></g></g></g><g fill="#737373" fill-opacity="1"><g transform="translate(172.222432, 243.296118)"><g/></g></g><g fill="#737373" fill-opacity="1"><g transform="translate(180.485203, 243.296118)"><g><path d="M 3.3125 -20.296875 L 12.5 -20.296875 L 12.5 -17.578125 L 6.03125 -17.578125 L 6.03125 -14.390625 L 10.875 -14.390625 L 10.875 -11.65625 L 6.03125 -11.65625 L 6.03125 0 L 3.3125 0 L 3.3125 -11.65625 L 0.875 -11.65625 L 0.875 -14.390625 L 3.3125 -14.390625 Z M 3.3125 -20.296875 "/></g></g></g><g fill="#737373" fill-opacity="1"><g transform="translate(193.995559, 243.296118)"><g><path d="M 7.59375 -14.390625 C 8.382812 -14.390625 9.175781 -14.3125 9.96875 -14.15625 C 10.769531 -14 11.492188 -13.671875 12.140625 -13.171875 C 12.785156 -12.679688 13.3125 -11.960938 13.71875 -11.015625 C 14.125 -10.066406 14.328125 -8.789062 14.328125 -7.1875 C 14.328125 -5.582031 14.125 -4.304688 13.71875 -3.359375 C 13.3125 -2.410156 12.785156 -1.6875 12.140625 -1.1875 C 11.492188 -0.6875 10.769531 -0.359375 9.96875 -0.203125 C 9.175781 -0.046875 8.382812 0.03125 7.59375 0.03125 C 6.820312 0.03125 6.035156 -0.046875 5.234375 -0.203125 C 4.429688 -0.359375 3.707031 -0.6875 3.0625 -1.1875 C 2.414062 -1.6875 1.890625 -2.410156 1.484375 -3.359375 C 1.078125 -4.304688 0.875 -5.582031 0.875 -7.1875 C 0.875 -8.789062 1.078125 -10.066406 1.484375 -11.015625 C 1.890625 -11.960938 2.414062 -12.679688 3.0625 -13.171875 C 3.707031 -13.671875 4.429688 -14 5.234375 -14.15625 C 6.035156 -14.3125 6.820312 -14.390625 7.59375 -14.390625 Z M 7.59375 -2.703125 C 8.21875 -2.703125 8.773438 -2.738281 9.265625 -2.8125 C 9.753906 -2.882812 10.164062 -3.070312 10.5 -3.375 C 10.84375 -3.675781 11.109375 -4.132812 11.296875 -4.75 C 11.484375 -5.375 11.578125 -6.21875 11.578125 -7.28125 C 11.578125 -8.226562 11.5 -8.984375 11.34375 -9.546875 C 11.1875 -10.117188 10.945312 -10.5625 10.625 -10.875 C 10.3125 -11.1875 9.898438 -11.394531 9.390625 -11.5 C 8.890625 -11.601562 8.289062 -11.65625 7.59375 -11.65625 C 6.894531 -11.65625 6.289062 -11.601562 5.78125 -11.5 C 5.269531 -11.394531 4.851562 -11.1875 4.53125 -10.875 C 4.21875 -10.5625 3.984375 -10.117188 3.828125 -9.546875 C 3.671875 -8.984375 3.59375 -8.226562 3.59375 -7.28125 C 3.59375 -6.21875 3.679688 -5.375 3.859375 -4.75 C 4.046875 -4.132812 4.3125 -3.675781 4.65625 -3.375 C 5.007812 -3.070312 5.429688 -2.882812 5.921875 -2.8125 C 6.421875 -2.738281 6.976562 -2.703125 7.59375 -2.703125 Z M 7.59375 -2.703125 "/></g></g></g><g fill="#737373" fill-opacity="1"><g transform="translate(209.187464, 243.296118)"><g><path d="M 10.5 -14.390625 L 10.5 -11.65625 L 4.171875 -11.65625 L 4.171875 0 L 1.453125 0 L 1.453125 -14.390625 Z M 10.5 -14.390625 "/></g></g></g><g fill="#737373" fill-opacity="1"><g transform="translate(220.697359, 243.296118)"><g/></g></g><g fill="#737373" fill-opacity="1"><g transform="translate(228.96013, 243.296118)"><g><path d="M 4.375 -15.21875 C 4.375 -14.488281 4.65625 -13.929688 5.21875 -13.546875 C 5.78125 -13.160156 6.476562 -12.832031 7.3125 -12.5625 C 8.15625 -12.289062 9.066406 -12.023438 10.046875 -11.765625 C 11.023438 -11.515625 11.925781 -11.164062 12.75 -10.71875 C 13.570312 -10.28125 14.25 -9.679688 14.78125 -8.921875 C 15.3125 -8.171875 15.554688 -7.148438 15.515625 -5.859375 C 15.492188 -5.453125 15.414062 -4.910156 15.28125 -4.234375 C 15.144531 -3.554688 14.835938 -2.894531 14.359375 -2.25 C 13.890625 -1.601562 13.207031 -1.039062 12.3125 -0.5625 C 11.414062 -0.09375 10.191406 0.140625 8.640625 0.140625 C 7.460938 0.140625 6.390625 -0.015625 5.421875 -0.328125 C 4.453125 -0.648438 3.632812 -1.109375 2.96875 -1.703125 C 2.300781 -2.304688 1.785156 -3.039062 1.421875 -3.90625 C 1.054688 -4.78125 0.875 -5.769531 0.875 -6.875 L 0.875 -7.28125 L 3.5625 -7.28125 C 3.71875 -5.65625 4.207031 -4.46875 5.03125 -3.71875 C 5.851562 -2.976562 6.960938 -2.609375 8.359375 -2.609375 C 8.859375 -2.609375 9.367188 -2.644531 9.890625 -2.71875 C 10.410156 -2.800781 10.882812 -2.957031 11.3125 -3.1875 C 11.738281 -3.414062 12.085938 -3.726562 12.359375 -4.125 C 12.628906 -4.53125 12.765625 -5.050781 12.765625 -5.6875 C 12.765625 -6.632812 12.488281 -7.351562 11.9375 -7.84375 C 11.382812 -8.332031 10.695312 -8.726562 9.875 -9.03125 C 9.050781 -9.332031 8.15625 -9.585938 7.1875 -9.796875 C 6.21875 -10.015625 5.320312 -10.316406 4.5 -10.703125 C 3.6875 -11.085938 3.003906 -11.617188 2.453125 -12.296875 C 1.898438 -12.972656 1.625 -13.921875 1.625 -15.140625 C 1.625 -15.984375 1.773438 -16.742188 2.078125 -17.421875 C 2.390625 -18.097656 2.828125 -18.671875 3.390625 -19.140625 C 3.953125 -19.609375 4.628906 -19.960938 5.421875 -20.203125 C 6.210938 -20.441406 7.09375 -20.5625 8.0625 -20.5625 C 10.050781 -20.5625 11.65625 -20.039062 12.875 -19 C 14.09375 -17.96875 14.75 -16.46875 14.84375 -14.5 L 12.15625 -14.5 C 11.9375 -15.71875 11.488281 -16.578125 10.8125 -17.078125 C 10.132812 -17.578125 9.25 -17.828125 8.15625 -17.828125 C 7.050781 -17.828125 6.144531 -17.609375 5.4375 -17.171875 C 4.726562 -16.742188 4.375 -16.09375 4.375 -15.21875 Z M 4.375 -15.21875 "/></g></g></g><g fill="#737373" fill-opacity="1"><g transform="translate(245.369709, 243.296118)"><g><path d="M 7.6875 -14.296875 C 8.9375 -14.296875 10 -14.082031 10.875 -13.65625 C 11.757812 -13.226562 12.46875 -12.632812 13 -11.875 C 13.53125 -11.113281 13.894531 -10.207031 14.09375 -9.15625 C 14.300781 -8.113281 14.359375 -6.984375 14.265625 -5.765625 L 3.625 -5.765625 C 3.625 -5.085938 3.726562 -4.535156 3.9375 -4.109375 C 4.15625 -3.691406 4.445312 -3.363281 4.8125 -3.125 C 5.175781 -2.894531 5.585938 -2.734375 6.046875 -2.640625 C 6.515625 -2.554688 7.015625 -2.515625 7.546875 -2.515625 C 7.910156 -2.515625 8.285156 -2.53125 8.671875 -2.5625 C 9.054688 -2.59375 9.410156 -2.660156 9.734375 -2.765625 C 10.066406 -2.867188 10.363281 -3.023438 10.625 -3.234375 C 10.882812 -3.453125 11.066406 -3.75 11.171875 -4.125 L 13.953125 -4.125 C 13.753906 -3.34375 13.457031 -2.6875 13.0625 -2.15625 C 12.664062 -1.625 12.191406 -1.191406 11.640625 -0.859375 C 11.085938 -0.535156 10.46875 -0.296875 9.78125 -0.140625 C 9.101562 0.015625 8.375 0.09375 7.59375 0.09375 C 5.257812 0.09375 3.554688 -0.515625 2.484375 -1.734375 C 1.410156 -2.953125 0.875 -4.742188 0.875 -7.109375 C 0.875 -8.148438 1.015625 -9.109375 1.296875 -9.984375 C 1.578125 -10.867188 1.992188 -11.628906 2.546875 -12.265625 C 3.109375 -12.898438 3.8125 -13.394531 4.65625 -13.75 C 5.507812 -14.113281 6.519531 -14.296875 7.6875 -14.296875 Z M 11.578125 -8.328125 C 11.554688 -8.554688 11.503906 -8.867188 11.421875 -9.265625 C 11.347656 -9.660156 11.179688 -10.046875 10.921875 -10.421875 C 10.660156 -10.796875 10.273438 -11.117188 9.765625 -11.390625 C 9.265625 -11.660156 8.582031 -11.796875 7.71875 -11.796875 C 6.925781 -11.796875 6.265625 -11.679688 5.734375 -11.453125 C 5.210938 -11.222656 4.789062 -10.929688 4.46875 -10.578125 C 4.15625 -10.234375 3.9375 -9.859375 3.8125 -9.453125 C 3.6875 -9.046875 3.625 -8.671875 3.625 -8.328125 Z M 11.578125 -8.328125 "/></g></g></g><g fill="#737373" fill-opacity="1"><g transform="translate(260.561602, 243.296118)"><g><path d="M 7.5625 -11.625 C 6.875 -11.625 6.273438 -11.570312 5.765625 -11.46875 C 5.265625 -11.363281 4.851562 -11.15625 4.53125 -10.84375 C 4.21875 -10.53125 3.984375 -10.082031 3.828125 -9.5 C 3.671875 -8.925781 3.59375 -8.175781 3.59375 -7.25 C 3.59375 -6.1875 3.679688 -5.34375 3.859375 -4.71875 C 4.046875 -4.101562 4.304688 -3.644531 4.640625 -3.34375 C 4.984375 -3.050781 5.398438 -2.863281 5.890625 -2.78125 C 6.390625 -2.707031 6.945312 -2.671875 7.5625 -2.671875 C 8.050781 -2.671875 8.5 -2.6875 8.90625 -2.71875 C 9.3125 -2.757812 9.671875 -2.851562 9.984375 -3 C 10.304688 -3.144531 10.578125 -3.363281 10.796875 -3.65625 C 11.023438 -3.945312 11.207031 -4.34375 11.34375 -4.84375 L 14.125 -4.84375 C 13.925781 -3.78125 13.597656 -2.925781 13.140625 -2.28125 C 12.691406 -1.632812 12.164062 -1.132812 11.5625 -0.78125 C 10.96875 -0.4375 10.320312 -0.207031 9.625 -0.09375 C 8.925781 0.0078125 8.238281 0.0625 7.5625 0.0625 C 6.789062 0.0625 6.007812 -0.015625 5.21875 -0.171875 C 4.425781 -0.328125 3.707031 -0.648438 3.0625 -1.140625 C 2.414062 -1.640625 1.890625 -2.363281 1.484375 -3.3125 C 1.078125 -4.269531 0.875 -5.546875 0.875 -7.140625 C 0.875 -8.742188 1.078125 -10.019531 1.484375 -10.96875 C 1.890625 -11.914062 2.414062 -12.640625 3.0625 -13.140625 C 3.707031 -13.640625 4.425781 -13.96875 5.21875 -14.125 C 6.007812 -14.28125 6.789062 -14.359375 7.5625 -14.359375 C 8.238281 -14.359375 8.925781 -14.296875 9.625 -14.171875 C 10.320312 -14.054688 10.972656 -13.828125 11.578125 -13.484375 C 12.191406 -13.140625 12.71875 -12.632812 13.15625 -11.96875 C 13.601562 -11.3125 13.925781 -10.441406 14.125 -9.359375 L 11.375 -9.359375 C 11.132812 -10.304688 10.707031 -10.921875 10.09375 -11.203125 C 9.488281 -11.484375 8.644531 -11.625 7.5625 -11.625 Z M 7.5625 -11.625 "/></g></g></g><g fill="#737373" fill-opacity="1"><g transform="translate(275.550569, 243.296118)"><g><path d="M 10.5 -14.390625 L 13.21875 -14.390625 L 13.21875 0 L 1.453125 0 L 1.453125 -14.390625 L 4.171875 -14.390625 L 4.171875 -2.71875 L 10.5 -2.71875 Z M 10.5 -14.390625 "/></g></g></g><g fill="#737373" fill-opacity="1"><g transform="translate(290.220612, 243.296118)"><g><path d="M 10.5 -14.390625 L 10.5 -11.65625 L 4.171875 -11.65625 L 4.171875 0 L 1.453125 0 L 1.453125 -14.390625 Z M 10.5 -14.390625 "/></g></g></g><g fill="#737373" fill-opacity="1"><g transform="translate(301.730507, 243.296118)"><g><path d="M 1.453125 -14.5 L 4.171875 -14.5 L 4.171875 0 L 1.453125 0 Z M 4.171875 -20.296875 L 4.171875 -17.578125 L 1.453125 -17.578125 L 1.453125 -20.296875 Z M 4.171875 -20.296875 "/></g></g></g><g fill="#737373" fill-opacity="1"><g transform="translate(307.38398, 243.296118)"><g><path d="M 6.03125 -2.71875 L 11.984375 -2.71875 L 11.984375 0 L 3.3125 0 L 3.3125 -11.65625 L 0.875 -11.65625 L 0.875 -14.390625 L 3.3125 -14.390625 L 3.3125 -20.296875 L 6.03125 -20.296875 L 6.03125 -14.390625 L 10.875 -14.390625 L 10.875 -11.65625 L 6.03125 -11.65625 Z M 6.03125 -2.71875 "/></g></g></g><g fill="#737373" fill-opacity="1"><g transform="translate(320.401473, 243.296118)"><g><path d="M 4.0625 -14.4375 L 4.0625 -7.453125 C 4.0625 -6.503906 4.140625 -5.722656 4.296875 -5.109375 C 4.453125 -4.503906 4.6875 -4.023438 5 -3.671875 C 5.320312 -3.328125 5.726562 -3.085938 6.21875 -2.953125 C 6.707031 -2.816406 7.285156 -2.75 7.953125 -2.75 C 8.628906 -2.75 9.226562 -2.816406 9.75 -2.953125 C 10.269531 -3.085938 10.703125 -3.328125 11.046875 -3.671875 C 11.398438 -4.023438 11.664062 -4.488281 11.84375 -5.0625 C 12.03125 -5.632812 12.125 -6.351562 12.125 -7.21875 L 12.125 -14.4375 L 14.875 -14.4375 L 14.875 5.890625 L 2.578125 5.890625 L 2.578125 3.125 L 12.03125 3.125 L 12.03125 -1.6875 L 11.984375 -1.6875 C 11.691406 -1.238281 11.171875 -0.847656 10.421875 -0.515625 C 9.679688 -0.191406 8.847656 -0.03125 7.921875 -0.03125 C 7.140625 -0.03125 6.347656 -0.109375 5.546875 -0.265625 C 4.742188 -0.421875 4.015625 -0.75 3.359375 -1.25 C 2.703125 -1.75 2.171875 -2.476562 1.765625 -3.4375 C 1.359375 -4.394531 1.15625 -5.664062 1.15625 -7.25 L 1.15625 -14.4375 Z M 4.0625 -14.4375 "/></g></g></g></svg>