<svg xmlns="http://www.w3.org/2000/svg" xmlns:xlink="http://www.w3.org/1999/xlink" width="700" zoomAndPan="magnify" viewBox="0 0 525 225" height="300" preserveAspectRatio="xMidYMid meet" version="1.0"><defs><g/></defs><g fill="#737373" fill-opacity="1"><g transform="translate(58.487484, 128.466401)"><g><path d="M 30.96875 0 L 30.96875 -77.953125 L 5.84375 -77.953125 L 5.84375 0 Z M 39.734375 0 C 55.046875 -5.5 66.15625 -21.859375 66.15625 -38.921875 C 66.15625 -55.984375 55.046875 -72.46875 39.734375 -77.953125 Z M 39.734375 0 "/></g></g></g><g fill="#737373" fill-opacity="1"><g transform="translate(127.322825, 128.466401)"><g><path d="M 42.1875 -74.21875 L 28.171875 -74.21875 L 28.171875 -60.1875 Z M 56.453125 -25.953125 L 36.9375 -45.46875 L 36.9375 -25.953125 Z M 2.109375 -26.0625 C 2.109375 -40.203125 13.328125 -51.3125 28.171875 -52.015625 L 28.171875 0 C 13.328125 -0.703125 2.109375 -11.796875 2.109375 -26.0625 Z M 2.109375 -26.0625 "/></g></g></g><g fill="#38b6ff" fill-opacity="1"><g transform="translate(181.786245, 128.466401)"><g><path d="M 29.109375 -77.953125 C 13.796875 -72.46875 2.6875 -55.984375 2.6875 -38.921875 C 2.6875 -21.859375 13.796875 -5.5 29.109375 0 Z M 54.8125 -58.4375 L 54.8125 -77.953125 L 35.296875 -77.953125 Z M 54.8125 -58.4375 "/></g></g></g><g fill="#737373" fill-opacity="1"><g transform="translate(237.071926, 128.466401)"><g><path d="M 5.03125 -52.015625 L 5.03125 -28.171875 C 5.03125 -19.984375 6.3125 -13.4375 12.5 -7.25 C 17.296875 -2.453125 22.5625 -0.234375 30.15625 0 L 30.15625 -52.015625 Z M 38.921875 -52.015625 L 38.921875 25.953125 C 46.515625 25.71875 51.78125 23.484375 56.5625 18.703125 C 62.765625 12.5 64.046875 5.953125 64.046875 -2.21875 L 64.046875 -52.015625 Z M 38.921875 -52.015625 "/></g></g></g><g fill="#38b6ff" fill-opacity="1"><g transform="translate(306.621646, 128.466401)"><g><path d="M 54.46875 -58.4375 L 54.46875 -77.953125 L 34.953125 -77.953125 Z M 2.6875 -52.015625 C 2.6875 -37.75 13.90625 -26.640625 28.75 -25.953125 L 28.75 -77.953125 C 13.90625 -77.25 2.6875 -66.15625 2.6875 -52.015625 Z M 63.578125 -26.0625 C 63.578125 -40.203125 52.359375 -51.3125 37.515625 -52.015625 L 37.515625 0 C 52.359375 -0.703125 63.578125 -11.796875 63.578125 -26.0625 Z M 63.578125 -26.0625 "/></g></g></g><g fill="#737373" fill-opacity="1"><g transform="translate(372.897653, 128.466401)"><g><path d="M 5.5 -77.953125 L 5.5 -58.4375 L 25.015625 -77.953125 Z M 30.625 0 L 30.625 -52.015625 L 5.5 -52.015625 L 5.5 0 Z M 30.625 0 "/></g></g></g><g fill="#737373" fill-opacity="1"><g transform="translate(409.009914, 128.466401)"><g><path d="M 36.46875 -52.015625 L 55.984375 -32.484375 L 55.984375 -52.015625 Z M 36.46875 -77.953125 L 55.984375 -58.4375 L 55.984375 -77.953125 Z M 30.15625 0 L 30.15625 -77.953125 C 22.5625 -77.71875 17.296875 -75.5 12.5 -70.703125 C 6.3125 -64.515625 5.03125 -57.96875 5.03125 -49.78125 L 5.03125 0 Z M 30.15625 0 "/></g></g></g><g fill="#38b6ff" fill-opacity="1"><g transform="translate(61.716564, 191.56153)"><g><path d="M 7.328125 -25.46875 C 7.328125 -24.238281 7.796875 -23.296875 8.734375 -22.640625 C 9.671875 -21.992188 10.84375 -21.445312 12.25 -21 C 13.65625 -20.550781 15.171875 -20.113281 16.796875 -19.6875 C 18.429688 -19.269531 19.9375 -18.6875 21.3125 -17.9375 C 22.6875 -17.195312 23.816406 -16.195312 24.703125 -14.9375 C 25.597656 -13.675781 26.015625 -11.960938 25.953125 -9.796875 C 25.921875 -9.117188 25.789062 -8.210938 25.5625 -7.078125 C 25.332031 -5.953125 24.820312 -4.847656 24.03125 -3.765625 C 23.238281 -2.679688 22.085938 -1.738281 20.578125 -0.9375 C 19.078125 -0.144531 17.035156 0.25 14.453125 0.25 C 12.484375 0.25 10.6875 -0.015625 9.0625 -0.546875 C 7.445312 -1.085938 6.082031 -1.859375 4.96875 -2.859375 C 3.851562 -3.859375 2.988281 -5.085938 2.375 -6.546875 C 1.757812 -8.003906 1.453125 -9.65625 1.453125 -11.5 L 1.453125 -12.171875 L 5.96875 -12.171875 C 6.226562 -9.453125 7.039062 -7.46875 8.40625 -6.21875 C 9.78125 -4.976562 11.632812 -4.359375 13.96875 -4.359375 C 14.8125 -4.359375 15.664062 -4.421875 16.53125 -4.546875 C 17.40625 -4.679688 18.195312 -4.941406 18.90625 -5.328125 C 19.625 -5.722656 20.207031 -6.25 20.65625 -6.90625 C 21.113281 -7.570312 21.34375 -8.4375 21.34375 -9.5 C 21.34375 -11.082031 20.878906 -12.285156 19.953125 -13.109375 C 19.035156 -13.941406 17.890625 -14.609375 16.515625 -15.109375 C 15.140625 -15.609375 13.644531 -16.035156 12.03125 -16.390625 C 10.414062 -16.742188 8.921875 -17.242188 7.546875 -17.890625 C 6.171875 -18.535156 5.019531 -19.425781 4.09375 -20.5625 C 3.175781 -21.695312 2.71875 -23.28125 2.71875 -25.3125 C 2.71875 -26.738281 2.972656 -28.015625 3.484375 -29.140625 C 4.003906 -30.273438 4.734375 -31.226562 5.671875 -32 C 6.609375 -32.78125 7.738281 -33.375 9.0625 -33.78125 C 10.394531 -34.1875 11.867188 -34.390625 13.484375 -34.390625 C 16.816406 -34.390625 19.5 -33.523438 21.53125 -31.796875 C 23.570312 -30.066406 24.671875 -27.550781 24.828125 -24.25 L 20.328125 -24.25 C 19.960938 -26.289062 19.210938 -27.726562 18.078125 -28.5625 C 16.953125 -29.40625 15.46875 -29.828125 13.625 -29.828125 C 11.78125 -29.828125 10.269531 -29.460938 9.09375 -28.734375 C 7.914062 -28.003906 7.328125 -26.914062 7.328125 -25.46875 Z M 7.328125 -25.46875 "/></g></g></g><g fill="#38b6ff" fill-opacity="1"><g transform="translate(89.1649, 191.56153)"><g><path d="M 12.859375 -23.90625 C 14.953125 -23.90625 16.734375 -23.550781 18.203125 -22.84375 C 19.679688 -22.132812 20.863281 -21.140625 21.75 -19.859375 C 22.644531 -18.578125 23.257812 -17.0625 23.59375 -15.3125 C 23.9375 -13.570312 24.023438 -11.6875 23.859375 -9.65625 L 6.0625 -9.65625 C 6.0625 -8.519531 6.238281 -7.59375 6.59375 -6.875 C 6.945312 -6.164062 7.429688 -5.617188 8.046875 -5.234375 C 8.660156 -4.847656 9.351562 -4.582031 10.125 -4.4375 C 10.90625 -4.289062 11.734375 -4.21875 12.609375 -4.21875 C 13.222656 -4.21875 13.851562 -4.238281 14.5 -4.28125 C 15.144531 -4.332031 15.742188 -4.445312 16.296875 -4.625 C 16.847656 -4.8125 17.34375 -5.082031 17.78125 -5.4375 C 18.21875 -5.789062 18.515625 -6.273438 18.671875 -6.890625 L 23.328125 -6.890625 C 23.003906 -5.597656 22.507812 -4.503906 21.84375 -3.609375 C 21.1875 -2.722656 20.394531 -2.003906 19.46875 -1.453125 C 18.550781 -0.898438 17.515625 -0.492188 16.359375 -0.234375 C 15.210938 0.015625 13.992188 0.140625 12.703125 0.140625 C 8.796875 0.140625 5.941406 -0.875 4.140625 -2.90625 C 2.347656 -4.945312 1.453125 -7.9375 1.453125 -11.875 C 1.453125 -13.625 1.6875 -15.234375 2.15625 -16.703125 C 2.625 -18.179688 3.328125 -19.453125 4.265625 -20.515625 C 5.203125 -21.578125 6.378906 -22.40625 7.796875 -23 C 9.222656 -23.601562 10.910156 -23.90625 12.859375 -23.90625 Z M 19.34375 -13.921875 C 19.3125 -14.304688 19.234375 -14.828125 19.109375 -15.484375 C 18.984375 -16.148438 18.703125 -16.796875 18.265625 -17.421875 C 17.828125 -18.054688 17.1875 -18.597656 16.34375 -19.046875 C 15.5 -19.503906 14.351562 -19.734375 12.90625 -19.734375 C 11.570312 -19.734375 10.46875 -19.539062 9.59375 -19.15625 C 8.726562 -18.769531 8.023438 -18.285156 7.484375 -17.703125 C 6.953125 -17.117188 6.582031 -16.488281 6.375 -15.8125 C 6.164062 -15.132812 6.0625 -14.503906 6.0625 -13.921875 Z M 19.34375 -13.921875 "/></g></g></g><g fill="#38b6ff" fill-opacity="1"><g transform="translate(114.576426, 191.56153)"><g><path d="M 12.65625 -19.453125 C 11.488281 -19.453125 10.484375 -19.363281 9.640625 -19.1875 C 8.804688 -19.007812 8.125 -18.660156 7.59375 -18.140625 C 7.0625 -17.617188 6.664062 -16.875 6.40625 -15.90625 C 6.144531 -14.9375 6.015625 -13.675781 6.015625 -12.125 C 6.015625 -10.34375 6.164062 -8.9375 6.46875 -7.90625 C 6.78125 -6.875 7.21875 -6.101562 7.78125 -5.59375 C 8.351562 -5.09375 9.050781 -4.78125 9.875 -4.65625 C 10.695312 -4.53125 11.625 -4.46875 12.65625 -4.46875 C 13.46875 -4.46875 14.210938 -4.5 14.890625 -4.5625 C 15.566406 -4.625 16.171875 -4.773438 16.703125 -5.015625 C 17.242188 -5.265625 17.695312 -5.628906 18.0625 -6.109375 C 18.4375 -6.597656 18.738281 -7.257812 18.96875 -8.09375 L 23.625 -8.09375 C 23.300781 -6.320312 22.757812 -4.894531 22 -3.8125 C 21.238281 -2.726562 20.351562 -1.894531 19.34375 -1.3125 C 18.34375 -0.726562 17.257812 -0.347656 16.09375 -0.171875 C 14.9375 0.00390625 13.789062 0.09375 12.65625 0.09375 C 11.363281 0.09375 10.050781 -0.03125 8.71875 -0.28125 C 7.394531 -0.539062 6.191406 -1.082031 5.109375 -1.90625 C 4.023438 -2.738281 3.144531 -3.953125 2.46875 -5.546875 C 1.789062 -7.148438 1.453125 -9.28125 1.453125 -11.9375 C 1.453125 -14.613281 1.789062 -16.742188 2.46875 -18.328125 C 3.144531 -19.910156 4.023438 -21.125 5.109375 -21.96875 C 6.191406 -22.8125 7.394531 -23.359375 8.71875 -23.609375 C 10.050781 -23.867188 11.363281 -24 12.65625 -24 C 13.789062 -24 14.9375 -23.898438 16.09375 -23.703125 C 17.257812 -23.515625 18.351562 -23.128906 19.375 -22.546875 C 20.394531 -21.960938 21.273438 -21.117188 22.015625 -20.015625 C 22.765625 -18.921875 23.300781 -17.472656 23.625 -15.671875 L 19.015625 -15.671875 C 18.628906 -17.253906 17.925781 -18.28125 16.90625 -18.75 C 15.882812 -19.21875 14.46875 -19.453125 12.65625 -19.453125 Z M 12.65625 -19.453125 "/></g></g></g><g fill="#38b6ff" fill-opacity="1"><g transform="translate(139.648493, 191.56153)"><g><path d="M 17.5625 -24.0625 L 22.109375 -24.0625 L 22.109375 0 L 2.421875 0 L 2.421875 -24.0625 L 6.984375 -24.0625 L 6.984375 -4.5625 L 17.5625 -4.5625 Z M 17.5625 -24.0625 "/></g></g></g><g fill="#38b6ff" fill-opacity="1"><g transform="translate(164.187114, 191.56153)"><g><path d="M 17.5625 -24.0625 L 17.5625 -19.5 L 6.984375 -19.5 L 6.984375 0 L 2.421875 0 L 2.421875 -24.0625 Z M 17.5625 -24.0625 "/></g></g></g><g fill="#38b6ff" fill-opacity="1"><g transform="translate(183.439752, 191.56153)"><g><path d="M 2.421875 -24.25 L 6.984375 -24.25 L 6.984375 0 L 2.421875 0 Z M 6.984375 -33.953125 L 6.984375 -29.390625 L 2.421875 -29.390625 L 2.421875 -33.953125 Z M 6.984375 -33.953125 "/></g></g></g><g fill="#38b6ff" fill-opacity="1"><g transform="translate(192.896341, 191.56153)"><g><path d="M 10.09375 -4.5625 L 20.03125 -4.5625 L 20.03125 0 L 5.53125 0 L 5.53125 -19.5 L 1.453125 -19.5 L 1.453125 -24.0625 L 5.53125 -24.0625 L 5.53125 -33.953125 L 10.09375 -33.953125 L 10.09375 -24.0625 L 18.1875 -24.0625 L 18.1875 -19.5 L 10.09375 -19.5 Z M 10.09375 -4.5625 "/></g></g></g><g fill="#38b6ff" fill-opacity="1"><g transform="translate(214.670724, 191.56153)"><g><path d="M 6.796875 -24.15625 L 6.796875 -12.46875 C 6.796875 -10.882812 6.921875 -9.582031 7.171875 -8.5625 C 7.429688 -7.539062 7.828125 -6.738281 8.359375 -6.15625 C 8.898438 -5.570312 9.582031 -5.164062 10.40625 -4.9375 C 11.226562 -4.71875 12.1875 -4.609375 13.28125 -4.609375 C 14.414062 -4.609375 15.421875 -4.71875 16.296875 -4.9375 C 17.171875 -5.164062 17.894531 -5.570312 18.46875 -6.15625 C 19.050781 -6.738281 19.492188 -7.503906 19.796875 -8.453125 C 20.109375 -9.410156 20.265625 -10.617188 20.265625 -12.078125 L 20.265625 -24.15625 L 24.875 -24.15625 L 24.875 9.84375 L 4.3125 9.84375 L 4.3125 5.234375 L 20.125 5.234375 L 20.125 -2.8125 L 20.03125 -2.8125 C 19.539062 -2.070312 18.671875 -1.425781 17.421875 -0.875 C 16.179688 -0.320312 14.785156 -0.046875 13.234375 -0.046875 C 11.941406 -0.046875 10.625 -0.175781 9.28125 -0.4375 C 7.945312 -0.695312 6.726562 -1.242188 5.625 -2.078125 C 4.53125 -2.921875 3.640625 -4.140625 2.953125 -5.734375 C 2.273438 -7.335938 1.9375 -9.46875 1.9375 -12.125 L 1.9375 -24.15625 Z M 6.796875 -24.15625 "/></g></g></g><g fill="#38b6ff" fill-opacity="1"><g transform="translate(241.973567, 191.56153)"><g/></g></g><g fill="#38b6ff" fill-opacity="1"><g transform="translate(255.794728, 191.56153)"><g><path d="M 2.421875 -34 L 6.984375 -34 L 6.984375 -21.53125 L 7.078125 -21.53125 C 7.566406 -22.28125 8.460938 -22.894531 9.765625 -23.375 C 11.078125 -23.863281 12.507812 -24.109375 14.0625 -24.109375 C 15.382812 -24.109375 16.707031 -23.976562 18.03125 -23.71875 C 19.363281 -23.457031 20.578125 -22.90625 21.671875 -22.0625 C 22.773438 -21.226562 23.664062 -20.015625 24.34375 -18.421875 C 25.019531 -16.835938 25.359375 -14.707031 25.359375 -12.03125 C 25.359375 -9.34375 25.007812 -7.207031 24.3125 -5.625 C 23.625 -4.039062 22.738281 -2.828125 21.65625 -1.984375 C 20.570312 -1.148438 19.359375 -0.609375 18.015625 -0.359375 C 16.671875 -0.117188 15.351562 0 14.0625 0 C 12.675781 0 11.328125 -0.265625 10.015625 -0.796875 C 8.703125 -1.328125 7.675781 -1.953125 6.9375 -2.671875 L 6.796875 -2.671875 L 6.3125 0 L 2.421875 0 Z M 13.875 -4.5625 C 14.90625 -4.5625 15.832031 -4.625 16.65625 -4.75 C 17.476562 -4.882812 18.171875 -5.203125 18.734375 -5.703125 C 19.304688 -6.203125 19.742188 -6.957031 20.046875 -7.96875 C 20.359375 -8.988281 20.515625 -10.390625 20.515625 -12.171875 C 20.515625 -13.753906 20.382812 -15.019531 20.125 -15.96875 C 19.863281 -16.925781 19.46875 -17.671875 18.9375 -18.203125 C 18.40625 -18.742188 17.71875 -19.101562 16.875 -19.28125 C 16.03125 -19.457031 15.03125 -19.546875 13.875 -19.546875 C 12.707031 -19.546875 11.691406 -19.457031 10.828125 -19.28125 C 9.972656 -19.101562 9.28125 -18.742188 8.75 -18.203125 C 8.21875 -17.671875 7.820312 -16.925781 7.5625 -15.96875 C 7.300781 -15.019531 7.171875 -13.753906 7.171875 -12.171875 C 7.171875 -10.390625 7.320312 -8.988281 7.625 -7.96875 C 7.9375 -6.957031 8.382812 -6.203125 8.96875 -5.703125 C 9.550781 -5.203125 10.253906 -4.882812 11.078125 -4.75 C 11.898438 -4.625 12.832031 -4.5625 13.875 -4.5625 Z M 13.875 -4.5625 "/></g></g></g><g fill="#38b6ff" fill-opacity="1"><g transform="translate(282.612618, 191.56153)"><g><path d="M 6.796875 -24.15625 L 6.796875 -12.46875 C 6.796875 -10.882812 6.921875 -9.582031 7.171875 -8.5625 C 7.429688 -7.539062 7.828125 -6.738281 8.359375 -6.15625 C 8.898438 -5.570312 9.582031 -5.164062 10.40625 -4.9375 C 11.226562 -4.71875 12.1875 -4.609375 13.28125 -4.609375 C 14.414062 -4.609375 15.421875 -4.71875 16.296875 -4.9375 C 17.171875 -5.164062 17.894531 -5.570312 18.46875 -6.15625 C 19.050781 -6.738281 19.492188 -7.503906 19.796875 -8.453125 C 20.109375 -9.410156 20.265625 -10.617188 20.265625 -12.078125 L 20.265625 -24.15625 L 24.875 -24.15625 L 24.875 9.84375 L 4.3125 9.84375 L 4.3125 5.234375 L 20.125 5.234375 L 20.125 -2.8125 L 20.03125 -2.8125 C 19.539062 -2.070312 18.671875 -1.425781 17.421875 -0.875 C 16.179688 -0.320312 14.785156 -0.046875 13.234375 -0.046875 C 11.941406 -0.046875 10.625 -0.175781 9.28125 -0.4375 C 7.945312 -0.695312 6.726562 -1.242188 5.625 -2.078125 C 4.53125 -2.921875 3.640625 -4.140625 2.953125 -5.734375 C 2.273438 -7.335938 1.9375 -9.46875 1.9375 -12.125 L 1.9375 -24.15625 Z M 6.796875 -24.15625 "/></g></g></g><g fill="#38b6ff" fill-opacity="1"><g transform="translate(309.915462, 191.56153)"><g/></g></g><g fill="#38b6ff" fill-opacity="1"><g transform="translate(323.736622, 191.56153)"><g><path d="M 15.515625 -33.90625 C 17.128906 -33.90625 18.640625 -33.601562 20.046875 -33 C 21.460938 -32.40625 22.6875 -31.582031 23.71875 -30.53125 C 24.75 -29.476562 25.570312 -28.253906 26.1875 -26.859375 C 26.800781 -25.472656 27.109375 -23.972656 27.109375 -22.359375 L 27.109375 -11.546875 C 27.109375 -9.960938 26.820312 -8.46875 26.25 -7.0625 C 25.6875 -5.65625 24.910156 -4.429688 23.921875 -3.390625 C 22.941406 -2.359375 21.769531 -1.535156 20.40625 -0.921875 C 19.050781 -0.304688 17.582031 0 16 0 L 2.421875 0 L 2.421875 -33.90625 Z M 22.546875 -22.359375 C 22.546875 -24.460938 21.957031 -26.160156 20.78125 -27.453125 C 19.601562 -28.742188 17.929688 -29.390625 15.765625 -29.390625 L 6.984375 -29.390625 L 6.984375 -4.5625 L 15.515625 -4.5625 C 17.710938 -4.5625 19.429688 -5.191406 20.671875 -6.453125 C 21.921875 -7.710938 22.546875 -9.410156 22.546875 -11.546875 Z M 22.546875 -22.359375 "/></g></g></g><g fill="#38b6ff" fill-opacity="1"><g transform="translate(352.300356, 191.56153)"><g><path d="M 12.859375 -23.90625 C 14.953125 -23.90625 16.734375 -23.550781 18.203125 -22.84375 C 19.679688 -22.132812 20.863281 -21.140625 21.75 -19.859375 C 22.644531 -18.578125 23.257812 -17.0625 23.59375 -15.3125 C 23.9375 -13.570312 24.023438 -11.6875 23.859375 -9.65625 L 6.0625 -9.65625 C 6.0625 -8.519531 6.238281 -7.59375 6.59375 -6.875 C 6.945312 -6.164062 7.429688 -5.617188 8.046875 -5.234375 C 8.660156 -4.847656 9.351562 -4.582031 10.125 -4.4375 C 10.90625 -4.289062 11.734375 -4.21875 12.609375 -4.21875 C 13.222656 -4.21875 13.851562 -4.238281 14.5 -4.28125 C 15.144531 -4.332031 15.742188 -4.445312 16.296875 -4.625 C 16.847656 -4.8125 17.34375 -5.082031 17.78125 -5.4375 C 18.21875 -5.789062 18.515625 -6.273438 18.671875 -6.890625 L 23.328125 -6.890625 C 23.003906 -5.597656 22.507812 -4.503906 21.84375 -3.609375 C 21.1875 -2.722656 20.394531 -2.003906 19.46875 -1.453125 C 18.550781 -0.898438 17.515625 -0.492188 16.359375 -0.234375 C 15.210938 0.015625 13.992188 0.140625 12.703125 0.140625 C 8.796875 0.140625 5.941406 -0.875 4.140625 -2.90625 C 2.347656 -4.945312 1.453125 -7.9375 1.453125 -11.875 C 1.453125 -13.625 1.6875 -15.234375 2.15625 -16.703125 C 2.625 -18.179688 3.328125 -19.453125 4.265625 -20.515625 C 5.203125 -21.578125 6.378906 -22.40625 7.796875 -23 C 9.222656 -23.601562 10.910156 -23.90625 12.859375 -23.90625 Z M 19.34375 -13.921875 C 19.3125 -14.304688 19.234375 -14.828125 19.109375 -15.484375 C 18.984375 -16.148438 18.703125 -16.796875 18.265625 -17.421875 C 17.828125 -18.054688 17.1875 -18.597656 16.34375 -19.046875 C 15.5 -19.503906 14.351562 -19.734375 12.90625 -19.734375 C 11.570312 -19.734375 10.46875 -19.539062 9.59375 -19.15625 C 8.726562 -18.769531 8.023438 -18.285156 7.484375 -17.703125 C 6.953125 -17.117188 6.582031 -16.488281 6.375 -15.8125 C 6.164062 -15.132812 6.0625 -14.503906 6.0625 -13.921875 Z M 19.34375 -13.921875 "/></g></g></g><g fill="#38b6ff" fill-opacity="1"><g transform="translate(377.711899, 191.56153)"><g><path d="M 6.84375 -17.03125 C 6.90625 -16.414062 7.273438 -15.925781 7.953125 -15.5625 C 8.628906 -15.207031 9.476562 -14.890625 10.5 -14.609375 C 11.519531 -14.335938 12.609375 -14.046875 13.765625 -13.734375 C 14.929688 -13.429688 16.015625 -13.003906 17.015625 -12.453125 C 18.023438 -11.910156 18.859375 -11.191406 19.515625 -10.296875 C 20.179688 -9.410156 20.515625 -8.257812 20.515625 -6.84375 C 20.515625 -5.96875 20.34375 -5.109375 20 -4.265625 C 19.664062 -3.421875 19.125 -2.664062 18.375 -2 C 17.632812 -1.34375 16.671875 -0.800781 15.484375 -0.375 C 14.304688 0.0390625 12.894531 0.25 11.25 0.25 C 9.925781 0.25 8.6875 0.046875 7.53125 -0.359375 C 6.382812 -0.765625 5.375 -1.332031 4.5 -2.0625 C 3.632812 -2.789062 2.929688 -3.644531 2.390625 -4.625 C 1.859375 -5.613281 1.546875 -6.691406 1.453125 -7.859375 L 6.453125 -7.859375 C 6.546875 -7.367188 6.695312 -6.878906 6.90625 -6.390625 C 7.113281 -5.910156 7.421875 -5.476562 7.828125 -5.09375 C 8.234375 -4.707031 8.742188 -4.398438 9.359375 -4.171875 C 9.972656 -3.941406 10.71875 -3.828125 11.59375 -3.828125 C 12.65625 -3.828125 13.484375 -3.945312 14.078125 -4.1875 C 14.679688 -4.4375 15.128906 -4.722656 15.421875 -5.046875 C 15.710938 -5.367188 15.890625 -5.664062 15.953125 -5.9375 C 16.015625 -6.21875 16.046875 -6.390625 16.046875 -6.453125 C 16.117188 -7.515625 15.828125 -8.304688 15.171875 -8.828125 C 14.523438 -9.347656 13.691406 -9.757812 12.671875 -10.0625 C 11.660156 -10.375 10.554688 -10.632812 9.359375 -10.84375 C 8.160156 -11.050781 7.046875 -11.378906 6.015625 -11.828125 C 4.984375 -12.285156 4.117188 -12.929688 3.421875 -13.765625 C 2.722656 -14.609375 2.375 -15.773438 2.375 -17.265625 C 2.375 -18.140625 2.523438 -18.976562 2.828125 -19.78125 C 3.140625 -20.59375 3.625 -21.320312 4.28125 -21.96875 C 4.945312 -22.613281 5.796875 -23.128906 6.828125 -23.515625 C 7.867188 -23.910156 9.117188 -24.109375 10.578125 -24.109375 C 11.773438 -24.109375 12.921875 -23.960938 14.015625 -23.671875 C 15.117188 -23.378906 16.085938 -22.929688 16.921875 -22.328125 C 17.765625 -21.734375 18.4375 -20.972656 18.9375 -20.046875 C 19.4375 -19.128906 19.6875 -18.054688 19.6875 -16.828125 L 14.84375 -16.828125 C 14.78125 -17.210938 14.664062 -17.59375 14.5 -17.96875 C 14.34375 -18.34375 14.109375 -18.675781 13.796875 -18.96875 C 13.492188 -19.257812 13.085938 -19.5 12.578125 -19.6875 C 12.078125 -19.882812 11.457031 -20 10.71875 -20.03125 C 9.875 -20.0625 9.191406 -19.972656 8.671875 -19.765625 C 8.160156 -19.554688 7.765625 -19.289062 7.484375 -18.96875 C 7.210938 -18.644531 7.03125 -18.300781 6.9375 -17.9375 C 6.84375 -17.582031 6.8125 -17.28125 6.84375 -17.03125 Z M 6.84375 -17.03125 "/></g></g></g><g fill="#38b6ff" fill-opacity="1"><g transform="translate(399.680285, 191.56153)"><g><path d="M 2.421875 -24.25 L 6.984375 -24.25 L 6.984375 0 L 2.421875 0 Z M 6.984375 -33.953125 L 6.984375 -29.390625 L 2.421875 -29.390625 L 2.421875 -33.953125 Z M 6.984375 -33.953125 "/></g></g></g><g fill="#38b6ff" fill-opacity="1"><g transform="translate(409.136856, 191.56153)"><g><path d="M 24.390625 9.84375 L 3.921875 9.84375 L 3.921875 5.234375 L 19.84375 5.234375 L 19.84375 -2.671875 L 19.734375 -2.671875 C 19.253906 -1.921875 18.359375 -1.300781 17.046875 -0.8125 C 15.734375 -0.332031 14.300781 -0.09375 12.75 -0.09375 C 11.457031 -0.09375 10.140625 -0.222656 8.796875 -0.484375 C 7.460938 -0.742188 6.242188 -1.289062 5.140625 -2.125 C 4.035156 -2.96875 3.144531 -4.191406 2.46875 -5.796875 C 1.789062 -7.398438 1.453125 -9.523438 1.453125 -12.171875 C 1.453125 -14.859375 1.800781 -16.992188 2.5 -18.578125 C 3.195312 -20.160156 4.085938 -21.367188 5.171875 -22.203125 C 6.253906 -23.046875 7.460938 -23.585938 8.796875 -23.828125 C 10.140625 -24.078125 11.457031 -24.203125 12.75 -24.203125 C 14.40625 -24.203125 15.878906 -23.957031 17.171875 -23.46875 C 18.460938 -22.988281 19.367188 -22.34375 19.890625 -21.53125 L 20.03125 -21.53125 L 20.03125 -24.203125 L 24.390625 -24.203125 Z M 12.953125 -4.703125 C 14.210938 -4.703125 15.273438 -4.804688 16.140625 -5.015625 C 17.015625 -5.222656 17.734375 -5.59375 18.296875 -6.125 C 18.867188 -6.664062 19.285156 -7.421875 19.546875 -8.390625 C 19.804688 -9.359375 19.9375 -10.585938 19.9375 -12.078125 C 19.9375 -13.753906 19.78125 -15.09375 19.46875 -16.09375 C 19.164062 -17.101562 18.722656 -17.875 18.140625 -18.40625 C 17.554688 -18.9375 16.851562 -19.28125 16.03125 -19.4375 C 15.207031 -19.601562 14.273438 -19.6875 13.234375 -19.6875 C 12.203125 -19.6875 11.273438 -19.617188 10.453125 -19.484375 C 9.628906 -19.359375 8.925781 -19.046875 8.34375 -18.546875 C 7.757812 -18.046875 7.3125 -17.285156 7 -16.265625 C 6.695312 -15.253906 6.546875 -13.859375 6.546875 -12.078125 C 6.546875 -10.492188 6.675781 -9.222656 6.9375 -8.265625 C 7.195312 -7.316406 7.582031 -6.570312 8.09375 -6.03125 C 8.613281 -5.5 9.273438 -5.144531 10.078125 -4.96875 C 10.890625 -4.789062 11.847656 -4.703125 12.953125 -4.703125 Z M 12.953125 -4.703125 "/></g></g></g><g fill="#38b6ff" fill-opacity="1"><g transform="translate(435.954764, 191.56153)"><g><path d="M 2.421875 0 L 2.421875 -24.0625 L 7.171875 -24.0625 L 7.171875 -21.34375 L 7.28125 -21.34375 C 7.757812 -22.082031 8.617188 -22.726562 9.859375 -23.28125 C 11.109375 -23.832031 12.507812 -24.109375 14.0625 -24.109375 C 15.382812 -24.109375 16.707031 -23.976562 18.03125 -23.71875 C 19.363281 -23.457031 20.578125 -22.90625 21.671875 -22.0625 C 22.773438 -21.226562 23.664062 -20.015625 24.34375 -18.421875 C 25.019531 -16.835938 25.359375 -14.707031 25.359375 -12.03125 L 25.359375 0 L 20.515625 0 L 20.515625 -11.6875 C 20.515625 -13.269531 20.382812 -14.570312 20.125 -15.59375 C 19.863281 -16.613281 19.46875 -17.410156 18.9375 -17.984375 C 18.40625 -18.566406 17.726562 -18.972656 16.90625 -19.203125 C 16.082031 -19.429688 15.117188 -19.546875 14.015625 -19.546875 C 12.878906 -19.546875 11.875 -19.429688 11 -19.203125 C 10.132812 -18.972656 9.410156 -18.566406 8.828125 -17.984375 C 8.242188 -17.410156 7.796875 -16.644531 7.484375 -15.6875 C 7.179688 -14.738281 7.03125 -13.535156 7.03125 -12.078125 L 7.03125 0 Z M 2.421875 0 "/></g></g></g></svg>