<svg xmlns="http://www.w3.org/2000/svg" xmlns:xlink="http://www.w3.org/1999/xlink" width="700" zoomAndPan="magnify" viewBox="0 0 525 225" height="300" preserveAspectRatio="xMidYMid meet" version="1.0"><defs><g/></defs><g fill="#737373" fill-opacity="1"><g transform="translate(58.622455, 132.702117)"><g><path d="M 30.375 0 L 30.375 -76.4375 L 5.734375 -76.4375 L 5.734375 0 Z M 38.96875 0 C 53.984375 -5.390625 64.875 -21.4375 64.875 -38.171875 C 64.875 -54.890625 53.984375 -71.0625 38.96875 -76.4375 Z M 38.96875 0 "/></g></g></g><g fill="#737373" fill-opacity="1"><g transform="translate(126.124235, 132.702117)"><g><path d="M 41.375 -72.78125 L 27.625 -72.78125 L 27.625 -59.03125 Z M 55.359375 -25.4375 L 36.21875 -44.578125 L 36.21875 -25.4375 Z M 2.0625 -25.5625 C 2.0625 -39.421875 13.0625 -50.3125 27.625 -51 L 27.625 0 C 13.0625 -0.6875 2.0625 -11.578125 2.0625 -25.5625 Z M 2.0625 -25.5625 "/></g></g></g><g fill="#38b6ff" fill-opacity="1"><g transform="translate(179.532523, 132.702117)"><g><path d="M 28.53125 -76.4375 C 13.53125 -71.0625 2.640625 -54.890625 2.640625 -38.171875 C 2.640625 -21.4375 13.53125 -5.390625 28.53125 0 Z M 53.75 -57.3125 L 53.75 -76.4375 L 34.609375 -76.4375 Z M 53.75 -57.3125 "/></g></g></g><g fill="#737373" fill-opacity="1"><g transform="translate(233.747144, 132.702117)"><g><path d="M 4.921875 -51 L 4.921875 -27.625 C 4.921875 -19.59375 6.1875 -13.1875 12.265625 -7.109375 C 16.96875 -2.40625 22.125 -0.234375 29.5625 0 L 29.5625 -51 Z M 38.171875 -51 L 38.171875 25.4375 C 45.609375 25.21875 50.765625 23.03125 55.46875 18.34375 C 61.546875 12.265625 62.8125 5.84375 62.8125 -2.171875 L 62.8125 -51 Z M 38.171875 -51 "/></g></g></g><g fill="#38b6ff" fill-opacity="1"><g transform="translate(301.949463, 132.702117)"><g><path d="M 53.40625 -57.3125 L 53.40625 -76.4375 L 34.265625 -76.4375 Z M 2.640625 -51 C 2.640625 -37.015625 13.640625 -26.125 28.1875 -25.4375 L 28.1875 -76.4375 C 13.640625 -75.75 2.640625 -64.875 2.640625 -51 Z M 62.34375 -25.5625 C 62.34375 -39.421875 51.34375 -50.3125 36.796875 -51 L 36.796875 0 C 51.34375 -0.6875 62.34375 -11.578125 62.34375 -25.5625 Z M 62.34375 -25.5625 "/></g></g></g><g fill="#737373" fill-opacity="1"><g transform="translate(366.941491, 132.702117)"><g><path d="M 5.390625 -76.4375 L 5.390625 -57.3125 L 24.53125 -76.4375 Z M 30.03125 0 L 30.03125 -51 L 5.390625 -51 L 5.390625 0 Z M 30.03125 0 "/></g></g></g><g fill="#737373" fill-opacity="1"><g transform="translate(402.354142, 132.702117)"><g><path d="M 35.765625 -51 L 54.890625 -31.859375 L 54.890625 -51 Z M 35.765625 -76.4375 L 54.890625 -57.3125 L 54.890625 -76.4375 Z M 29.5625 0 L 29.5625 -76.4375 C 22.125 -76.21875 16.96875 -74.03125 12.265625 -69.34375 C 6.1875 -63.265625 4.921875 -56.84375 4.921875 -48.828125 L 4.921875 0 Z M 29.5625 0 "/></g></g></g><g fill="#38b6ff" fill-opacity="1"><g transform="translate(61.963779, 188.528293)"><g><path d="M 1.953125 0 L 1.953125 -27.390625 L 20.421875 -27.390625 L 20.421875 -23.703125 L 5.640625 -23.703125 L 5.640625 -15.8125 L 16.703125 -15.8125 L 16.703125 -12.09375 L 5.640625 -12.09375 L 5.640625 -3.71875 L 20.421875 -3.71875 L 20.421875 0 Z M 1.953125 0 "/></g></g></g><g fill="#38b6ff" fill-opacity="1"><g transform="translate(83.758986, 188.528293)"><g><path d="M 11.078125 -9.703125 L 16.859375 0 L 12.71875 0 L 9.03125 -6.21875 L 9 -6.21875 L 5.328125 0 L 1.171875 0 L 6.921875 -9.703125 L 6.921875 -9.734375 L 1.171875 -19.40625 L 5.328125 -19.40625 L 9 -13.21875 L 9.03125 -13.21875 L 12.71875 -19.40625 L 16.859375 -19.40625 L 11.078125 -9.734375 Z M 11.078125 -9.703125 "/></g></g></g><g fill="#38b6ff" fill-opacity="1"><g transform="translate(101.797746, 188.528293)"><g><path d="M 10.21875 -15.6875 C 9.269531 -15.6875 8.457031 -15.613281 7.78125 -15.46875 C 7.101562 -15.332031 6.550781 -15.050781 6.125 -14.625 C 5.695312 -14.207031 5.375 -13.609375 5.15625 -12.828125 C 4.945312 -12.046875 4.84375 -11.03125 4.84375 -9.78125 C 4.84375 -8.34375 4.96875 -7.207031 5.21875 -6.375 C 5.46875 -5.539062 5.820312 -4.921875 6.28125 -4.515625 C 6.738281 -4.109375 7.296875 -3.851562 7.953125 -3.75 C 8.617188 -3.644531 9.375 -3.59375 10.21875 -3.59375 C 10.863281 -3.59375 11.457031 -3.617188 12 -3.671875 C 12.550781 -3.722656 13.039062 -3.847656 13.46875 -4.046875 C 13.90625 -4.242188 14.273438 -4.535156 14.578125 -4.921875 C 14.878906 -5.316406 15.117188 -5.851562 15.296875 -6.53125 L 19.046875 -6.53125 C 18.785156 -5.09375 18.347656 -3.9375 17.734375 -3.0625 C 17.128906 -2.195312 16.421875 -1.53125 15.609375 -1.0625 C 14.796875 -0.59375 13.921875 -0.285156 12.984375 -0.140625 C 12.046875 0.00390625 11.125 0.078125 10.21875 0.078125 C 9.164062 0.078125 8.101562 -0.0234375 7.03125 -0.234375 C 5.96875 -0.441406 5 -0.878906 4.125 -1.546875 C 3.25 -2.210938 2.535156 -3.191406 1.984375 -4.484375 C 1.441406 -5.773438 1.171875 -7.488281 1.171875 -9.625 C 1.171875 -11.789062 1.441406 -13.507812 1.984375 -14.78125 C 2.535156 -16.0625 3.25 -17.039062 4.125 -17.71875 C 5 -18.394531 5.96875 -18.835938 7.03125 -19.046875 C 8.101562 -19.253906 9.164062 -19.359375 10.21875 -19.359375 C 11.125 -19.359375 12.046875 -19.28125 12.984375 -19.125 C 13.921875 -18.96875 14.800781 -18.65625 15.625 -18.1875 C 16.445312 -17.71875 17.15625 -17.039062 17.75 -16.15625 C 18.351562 -15.269531 18.785156 -14.097656 19.046875 -12.640625 L 15.34375 -12.640625 C 15.03125 -13.910156 14.460938 -14.734375 13.640625 -15.109375 C 12.816406 -15.492188 11.675781 -15.6875 10.21875 -15.6875 Z M 10.21875 -15.6875 "/></g></g></g><g fill="#38b6ff" fill-opacity="1"><g transform="translate(122.027779, 188.528293)"><g><path d="M 10.375 -19.28125 C 12.0625 -19.28125 13.5 -18.992188 14.6875 -18.421875 C 15.875 -17.847656 16.828125 -17.046875 17.546875 -16.015625 C 18.265625 -14.984375 18.757812 -13.765625 19.03125 -12.359375 C 19.300781 -10.953125 19.375 -9.425781 19.25 -7.78125 L 4.890625 -7.78125 C 4.890625 -6.875 5.03125 -6.128906 5.3125 -5.546875 C 5.601562 -4.972656 5.992188 -4.53125 6.484375 -4.21875 C 6.984375 -3.90625 7.546875 -3.691406 8.171875 -3.578125 C 8.796875 -3.460938 9.460938 -3.40625 10.171875 -3.40625 C 10.671875 -3.40625 11.179688 -3.421875 11.703125 -3.453125 C 12.222656 -3.492188 12.703125 -3.585938 13.140625 -3.734375 C 13.585938 -3.878906 13.988281 -4.09375 14.34375 -4.375 C 14.695312 -4.664062 14.9375 -5.0625 15.0625 -5.5625 L 18.8125 -5.5625 C 18.550781 -4.507812 18.15625 -3.625 17.625 -2.90625 C 17.09375 -2.195312 16.453125 -1.617188 15.703125 -1.171875 C 14.960938 -0.734375 14.128906 -0.40625 13.203125 -0.1875 C 12.273438 0.0195312 11.289062 0.125 10.25 0.125 C 7.09375 0.125 4.789062 -0.695312 3.34375 -2.34375 C 1.894531 -3.988281 1.171875 -6.398438 1.171875 -9.578125 C 1.171875 -10.992188 1.359375 -12.296875 1.734375 -13.484375 C 2.117188 -14.671875 2.6875 -15.691406 3.4375 -16.546875 C 4.195312 -17.410156 5.148438 -18.082031 6.296875 -18.5625 C 7.441406 -19.039062 8.800781 -19.28125 10.375 -19.28125 Z M 15.609375 -11.234375 C 15.585938 -11.546875 15.523438 -11.96875 15.421875 -12.5 C 15.316406 -13.03125 15.085938 -13.550781 14.734375 -14.0625 C 14.378906 -14.570312 13.863281 -15.007812 13.1875 -15.375 C 12.507812 -15.738281 11.582031 -15.921875 10.40625 -15.921875 C 9.332031 -15.921875 8.441406 -15.765625 7.734375 -15.453125 C 7.035156 -15.140625 6.472656 -14.75 6.046875 -14.28125 C 5.617188 -13.8125 5.316406 -13.300781 5.140625 -12.75 C 4.972656 -12.207031 4.890625 -11.703125 4.890625 -11.234375 Z M 15.609375 -11.234375 "/></g></g></g><g fill="#38b6ff" fill-opacity="1"><g transform="translate(142.531714, 188.528293)"><g><path d="M 1.953125 -27.390625 L 5.640625 -27.390625 L 5.640625 0 L 1.953125 0 Z M 1.953125 -27.390625 "/></g></g></g><g fill="#38b6ff" fill-opacity="1"><g transform="translate(150.122871, 188.528293)"><g><path d="M 1.953125 -27.390625 L 5.640625 -27.390625 L 5.640625 0 L 1.953125 0 Z M 1.953125 -27.390625 "/></g></g></g><g fill="#38b6ff" fill-opacity="1"><g transform="translate(157.714028, 188.528293)"><g><path d="M 10.375 -19.28125 C 12.0625 -19.28125 13.5 -18.992188 14.6875 -18.421875 C 15.875 -17.847656 16.828125 -17.046875 17.546875 -16.015625 C 18.265625 -14.984375 18.757812 -13.765625 19.03125 -12.359375 C 19.300781 -10.953125 19.375 -9.425781 19.25 -7.78125 L 4.890625 -7.78125 C 4.890625 -6.875 5.03125 -6.128906 5.3125 -5.546875 C 5.601562 -4.972656 5.992188 -4.53125 6.484375 -4.21875 C 6.984375 -3.90625 7.546875 -3.691406 8.171875 -3.578125 C 8.796875 -3.460938 9.460938 -3.40625 10.171875 -3.40625 C 10.671875 -3.40625 11.179688 -3.421875 11.703125 -3.453125 C 12.222656 -3.492188 12.703125 -3.585938 13.140625 -3.734375 C 13.585938 -3.878906 13.988281 -4.09375 14.34375 -4.375 C 14.695312 -4.664062 14.9375 -5.0625 15.0625 -5.5625 L 18.8125 -5.5625 C 18.550781 -4.507812 18.15625 -3.625 17.625 -2.90625 C 17.09375 -2.195312 16.453125 -1.617188 15.703125 -1.171875 C 14.960938 -0.734375 14.128906 -0.40625 13.203125 -0.1875 C 12.273438 0.0195312 11.289062 0.125 10.25 0.125 C 7.09375 0.125 4.789062 -0.695312 3.34375 -2.34375 C 1.894531 -3.988281 1.171875 -6.398438 1.171875 -9.578125 C 1.171875 -10.992188 1.359375 -12.296875 1.734375 -13.484375 C 2.117188 -14.671875 2.6875 -15.691406 3.4375 -16.546875 C 4.195312 -17.410156 5.148438 -18.082031 6.296875 -18.5625 C 7.441406 -19.039062 8.800781 -19.28125 10.375 -19.28125 Z M 15.609375 -11.234375 C 15.585938 -11.546875 15.523438 -11.96875 15.421875 -12.5 C 15.316406 -13.03125 15.085938 -13.550781 14.734375 -14.0625 C 14.378906 -14.570312 13.863281 -15.007812 13.1875 -15.375 C 12.507812 -15.738281 11.582031 -15.921875 10.40625 -15.921875 C 9.332031 -15.921875 8.441406 -15.765625 7.734375 -15.453125 C 7.035156 -15.140625 6.472656 -14.75 6.046875 -14.28125 C 5.617188 -13.8125 5.316406 -13.300781 5.140625 -12.75 C 4.972656 -12.207031 4.890625 -11.703125 4.890625 -11.234375 Z M 15.609375 -11.234375 "/></g></g></g><g fill="#38b6ff" fill-opacity="1"><g transform="translate(178.217962, 188.528293)"><g><path d="M 1.953125 0 L 1.953125 -19.40625 L 5.796875 -19.40625 L 5.796875 -17.21875 L 5.875 -17.21875 C 6.257812 -17.8125 6.953125 -18.328125 7.953125 -18.765625 C 8.960938 -19.210938 10.09375 -19.4375 11.34375 -19.4375 C 12.414062 -19.4375 13.484375 -19.332031 14.546875 -19.125 C 15.617188 -18.914062 16.597656 -18.472656 17.484375 -17.796875 C 18.367188 -17.117188 19.085938 -16.140625 19.640625 -14.859375 C 20.191406 -13.585938 20.46875 -11.867188 20.46875 -9.703125 L 20.46875 0 L 16.546875 0 L 16.546875 -9.421875 C 16.546875 -10.703125 16.441406 -11.753906 16.234375 -12.578125 C 16.023438 -13.398438 15.703125 -14.046875 15.265625 -14.515625 C 14.835938 -14.984375 14.289062 -15.304688 13.625 -15.484375 C 12.96875 -15.671875 12.195312 -15.765625 11.3125 -15.765625 C 10.394531 -15.765625 9.582031 -15.671875 8.875 -15.484375 C 8.175781 -15.304688 7.59375 -14.984375 7.125 -14.515625 C 6.65625 -14.046875 6.296875 -13.425781 6.046875 -12.65625 C 5.796875 -11.882812 5.671875 -10.910156 5.671875 -9.734375 L 5.671875 0 Z M 1.953125 0 "/></g></g></g><g fill="#38b6ff" fill-opacity="1"><g transform="translate(200.247962, 188.528293)"><g><path d="M 10.21875 -15.6875 C 9.269531 -15.6875 8.457031 -15.613281 7.78125 -15.46875 C 7.101562 -15.332031 6.550781 -15.050781 6.125 -14.625 C 5.695312 -14.207031 5.375 -13.609375 5.15625 -12.828125 C 4.945312 -12.046875 4.84375 -11.03125 4.84375 -9.78125 C 4.84375 -8.34375 4.96875 -7.207031 5.21875 -6.375 C 5.46875 -5.539062 5.820312 -4.921875 6.28125 -4.515625 C 6.738281 -4.109375 7.296875 -3.851562 7.953125 -3.75 C 8.617188 -3.644531 9.375 -3.59375 10.21875 -3.59375 C 10.863281 -3.59375 11.457031 -3.617188 12 -3.671875 C 12.550781 -3.722656 13.039062 -3.847656 13.46875 -4.046875 C 13.90625 -4.242188 14.273438 -4.535156 14.578125 -4.921875 C 14.878906 -5.316406 15.117188 -5.851562 15.296875 -6.53125 L 19.046875 -6.53125 C 18.785156 -5.09375 18.347656 -3.9375 17.734375 -3.0625 C 17.128906 -2.195312 16.421875 -1.53125 15.609375 -1.0625 C 14.796875 -0.59375 13.921875 -0.285156 12.984375 -0.140625 C 12.046875 0.00390625 11.125 0.078125 10.21875 0.078125 C 9.164062 0.078125 8.101562 -0.0234375 7.03125 -0.234375 C 5.96875 -0.441406 5 -0.878906 4.125 -1.546875 C 3.25 -2.210938 2.535156 -3.191406 1.984375 -4.484375 C 1.441406 -5.773438 1.171875 -7.488281 1.171875 -9.625 C 1.171875 -11.789062 1.441406 -13.507812 1.984375 -14.78125 C 2.535156 -16.0625 3.25 -17.039062 4.125 -17.71875 C 5 -18.394531 5.96875 -18.835938 7.03125 -19.046875 C 8.101562 -19.253906 9.164062 -19.359375 10.21875 -19.359375 C 11.125 -19.359375 12.046875 -19.28125 12.984375 -19.125 C 13.921875 -18.96875 14.800781 -18.65625 15.625 -18.1875 C 16.445312 -17.71875 17.15625 -17.039062 17.75 -16.15625 C 18.351562 -15.269531 18.785156 -14.097656 19.046875 -12.640625 L 15.34375 -12.640625 C 15.03125 -13.910156 14.460938 -14.734375 13.640625 -15.109375 C 12.816406 -15.492188 11.675781 -15.6875 10.21875 -15.6875 Z M 10.21875 -15.6875 "/></g></g></g><g fill="#38b6ff" fill-opacity="1"><g transform="translate(220.477995, 188.528293)"><g><path d="M 10.375 -19.28125 C 12.0625 -19.28125 13.5 -18.992188 14.6875 -18.421875 C 15.875 -17.847656 16.828125 -17.046875 17.546875 -16.015625 C 18.265625 -14.984375 18.757812 -13.765625 19.03125 -12.359375 C 19.300781 -10.953125 19.375 -9.425781 19.25 -7.78125 L 4.890625 -7.78125 C 4.890625 -6.875 5.03125 -6.128906 5.3125 -5.546875 C 5.601562 -4.972656 5.992188 -4.53125 6.484375 -4.21875 C 6.984375 -3.90625 7.546875 -3.691406 8.171875 -3.578125 C 8.796875 -3.460938 9.460938 -3.40625 10.171875 -3.40625 C 10.671875 -3.40625 11.179688 -3.421875 11.703125 -3.453125 C 12.222656 -3.492188 12.703125 -3.585938 13.140625 -3.734375 C 13.585938 -3.878906 13.988281 -4.09375 14.34375 -4.375 C 14.695312 -4.664062 14.9375 -5.0625 15.0625 -5.5625 L 18.8125 -5.5625 C 18.550781 -4.507812 18.15625 -3.625 17.625 -2.90625 C 17.09375 -2.195312 16.453125 -1.617188 15.703125 -1.171875 C 14.960938 -0.734375 14.128906 -0.40625 13.203125 -0.1875 C 12.273438 0.0195312 11.289062 0.125 10.25 0.125 C 7.09375 0.125 4.789062 -0.695312 3.34375 -2.34375 C 1.894531 -3.988281 1.171875 -6.398438 1.171875 -9.578125 C 1.171875 -10.992188 1.359375 -12.296875 1.734375 -13.484375 C 2.117188 -14.671875 2.6875 -15.691406 3.4375 -16.546875 C 4.195312 -17.410156 5.148438 -18.082031 6.296875 -18.5625 C 7.441406 -19.039062 8.800781 -19.28125 10.375 -19.28125 Z M 15.609375 -11.234375 C 15.585938 -11.546875 15.523438 -11.96875 15.421875 -12.5 C 15.316406 -13.03125 15.085938 -13.550781 14.734375 -14.0625 C 14.378906 -14.570312 13.863281 -15.007812 13.1875 -15.375 C 12.507812 -15.738281 11.582031 -15.921875 10.40625 -15.921875 C 9.332031 -15.921875 8.441406 -15.765625 7.734375 -15.453125 C 7.035156 -15.140625 6.472656 -14.75 6.046875 -14.28125 C 5.617188 -13.8125 5.316406 -13.300781 5.140625 -12.75 C 4.972656 -12.207031 4.890625 -11.703125 4.890625 -11.234375 Z M 15.609375 -11.234375 "/></g></g></g><g fill="#38b6ff" fill-opacity="1"><g transform="translate(240.981929, 188.528293)"><g/></g></g><g fill="#38b6ff" fill-opacity="1"><g transform="translate(252.13388, 188.528293)"><g><path d="M 4.453125 -27.390625 L 16.859375 -27.390625 L 16.859375 -23.703125 L 8.140625 -23.703125 L 8.140625 -19.40625 L 14.671875 -19.40625 L 14.671875 -15.734375 L 8.140625 -15.734375 L 8.140625 0 L 4.453125 0 L 4.453125 -15.734375 L 1.171875 -15.734375 L 1.171875 -19.40625 L 4.453125 -19.40625 Z M 4.453125 -27.390625 "/></g></g></g><g fill="#38b6ff" fill-opacity="1"><g transform="translate(270.368293, 188.528293)"><g><path d="M 10.25 -19.40625 C 11.320312 -19.40625 12.390625 -19.300781 13.453125 -19.09375 C 14.523438 -18.882812 15.5 -18.445312 16.375 -17.78125 C 17.25 -17.113281 17.957031 -16.140625 18.5 -14.859375 C 19.050781 -13.585938 19.328125 -11.867188 19.328125 -9.703125 C 19.328125 -7.535156 19.050781 -5.8125 18.5 -4.53125 C 17.957031 -3.257812 17.25 -2.285156 16.375 -1.609375 C 15.5 -0.929688 14.523438 -0.484375 13.453125 -0.265625 C 12.390625 -0.0546875 11.320312 0.046875 10.25 0.046875 C 9.207031 0.046875 8.144531 -0.0546875 7.0625 -0.265625 C 5.976562 -0.484375 5 -0.929688 4.125 -1.609375 C 3.25 -2.285156 2.535156 -3.257812 1.984375 -4.53125 C 1.441406 -5.8125 1.171875 -7.535156 1.171875 -9.703125 C 1.171875 -11.867188 1.441406 -13.585938 1.984375 -14.859375 C 2.535156 -16.140625 3.25 -17.113281 4.125 -17.78125 C 5 -18.445312 5.976562 -18.882812 7.0625 -19.09375 C 8.144531 -19.300781 9.207031 -19.40625 10.25 -19.40625 Z M 10.25 -3.640625 C 11.082031 -3.640625 11.832031 -3.691406 12.5 -3.796875 C 13.164062 -3.898438 13.726562 -4.15625 14.1875 -4.5625 C 14.644531 -4.96875 14.992188 -5.585938 15.234375 -6.421875 C 15.484375 -7.253906 15.609375 -8.390625 15.609375 -9.828125 C 15.609375 -11.097656 15.503906 -12.117188 15.296875 -12.890625 C 15.085938 -13.660156 14.765625 -14.253906 14.328125 -14.671875 C 13.898438 -15.085938 13.347656 -15.367188 12.671875 -15.515625 C 11.992188 -15.660156 11.1875 -15.734375 10.25 -15.734375 C 9.3125 -15.734375 8.492188 -15.660156 7.796875 -15.515625 C 7.109375 -15.367188 6.550781 -15.085938 6.125 -14.671875 C 5.695312 -14.253906 5.375 -13.660156 5.15625 -12.890625 C 4.945312 -12.117188 4.84375 -11.097656 4.84375 -9.828125 C 4.84375 -8.390625 4.96875 -7.253906 5.21875 -6.421875 C 5.46875 -5.585938 5.828125 -4.96875 6.296875 -4.5625 C 6.765625 -4.15625 7.332031 -3.898438 8 -3.796875 C 8.664062 -3.691406 9.414062 -3.640625 10.25 -3.640625 Z M 10.25 -3.640625 "/></g></g></g><g fill="#38b6ff" fill-opacity="1"><g transform="translate(290.872227, 188.528293)"><g><path d="M 14.15625 -19.40625 L 14.15625 -15.734375 L 5.640625 -15.734375 L 5.640625 0 L 1.953125 0 L 1.953125 -19.40625 Z M 14.15625 -19.40625 "/></g></g></g><g fill="#38b6ff" fill-opacity="1"><g transform="translate(306.40669, 188.528293)"><g/></g></g><g fill="#38b6ff" fill-opacity="1"><g transform="translate(317.558641, 188.528293)"><g><path d="M 5.90625 -20.546875 C 5.90625 -19.546875 6.28125 -18.785156 7.03125 -18.265625 C 7.789062 -17.742188 8.738281 -17.300781 9.875 -16.9375 C 11.007812 -16.570312 12.234375 -16.21875 13.546875 -15.875 C 14.867188 -15.539062 16.082031 -15.070312 17.1875 -14.46875 C 18.300781 -13.875 19.21875 -13.066406 19.9375 -12.046875 C 20.65625 -11.035156 20.988281 -9.65625 20.9375 -7.90625 C 20.90625 -7.351562 20.796875 -6.617188 20.609375 -5.703125 C 20.429688 -4.796875 20.019531 -3.90625 19.375 -3.03125 C 18.738281 -2.15625 17.816406 -1.394531 16.609375 -0.75 C 15.398438 -0.113281 13.75 0.203125 11.65625 0.203125 C 10.0625 0.203125 8.613281 -0.0078125 7.3125 -0.4375 C 6.007812 -0.875 4.90625 -1.492188 4 -2.296875 C 3.101562 -3.109375 2.40625 -4.101562 1.90625 -5.28125 C 1.414062 -6.457031 1.171875 -7.785156 1.171875 -9.265625 L 1.171875 -9.828125 L 4.8125 -9.828125 C 5.019531 -7.628906 5.675781 -6.023438 6.78125 -5.015625 C 7.894531 -4.015625 9.390625 -3.515625 11.265625 -3.515625 C 11.941406 -3.515625 12.628906 -3.566406 13.328125 -3.671875 C 14.035156 -3.773438 14.675781 -3.984375 15.25 -4.296875 C 15.832031 -4.609375 16.304688 -5.03125 16.671875 -5.5625 C 17.035156 -6.101562 17.21875 -6.804688 17.21875 -7.671875 C 17.21875 -8.941406 16.84375 -9.910156 16.09375 -10.578125 C 15.351562 -11.242188 14.425781 -11.78125 13.3125 -12.1875 C 12.207031 -12.59375 11.003906 -12.9375 9.703125 -13.21875 C 8.398438 -13.507812 7.191406 -13.914062 6.078125 -14.4375 C 4.972656 -14.957031 4.046875 -15.671875 3.296875 -16.578125 C 2.554688 -17.492188 2.1875 -18.773438 2.1875 -20.421875 C 2.1875 -21.566406 2.394531 -22.597656 2.8125 -23.515625 C 3.226562 -24.429688 3.816406 -25.203125 4.578125 -25.828125 C 5.335938 -26.453125 6.25 -26.925781 7.3125 -27.25 C 8.382812 -27.570312 9.570312 -27.734375 10.875 -27.734375 C 13.5625 -27.734375 15.726562 -27.035156 17.375 -25.640625 C 19.019531 -24.242188 19.90625 -22.21875 20.03125 -19.5625 L 16.390625 -19.5625 C 16.109375 -21.207031 15.507812 -22.367188 14.59375 -23.046875 C 13.675781 -23.722656 12.476562 -24.0625 11 -24.0625 C 9.507812 -24.0625 8.285156 -23.765625 7.328125 -23.171875 C 6.378906 -22.585938 5.90625 -21.710938 5.90625 -20.546875 Z M 5.90625 -20.546875 "/></g></g></g><g fill="#38b6ff" fill-opacity="1"><g transform="translate(339.706028, 188.528293)"><g><path d="M 10.375 -19.28125 C 12.0625 -19.28125 13.5 -18.992188 14.6875 -18.421875 C 15.875 -17.847656 16.828125 -17.046875 17.546875 -16.015625 C 18.265625 -14.984375 18.757812 -13.765625 19.03125 -12.359375 C 19.300781 -10.953125 19.375 -9.425781 19.25 -7.78125 L 4.890625 -7.78125 C 4.890625 -6.875 5.03125 -6.128906 5.3125 -5.546875 C 5.601562 -4.972656 5.992188 -4.53125 6.484375 -4.21875 C 6.984375 -3.90625 7.546875 -3.691406 8.171875 -3.578125 C 8.796875 -3.460938 9.460938 -3.40625 10.171875 -3.40625 C 10.671875 -3.40625 11.179688 -3.421875 11.703125 -3.453125 C 12.222656 -3.492188 12.703125 -3.585938 13.140625 -3.734375 C 13.585938 -3.878906 13.988281 -4.09375 14.34375 -4.375 C 14.695312 -4.664062 14.9375 -5.0625 15.0625 -5.5625 L 18.8125 -5.5625 C 18.550781 -4.507812 18.15625 -3.625 17.625 -2.90625 C 17.09375 -2.195312 16.453125 -1.617188 15.703125 -1.171875 C 14.960938 -0.734375 14.128906 -0.40625 13.203125 -0.1875 C 12.273438 0.0195312 11.289062 0.125 10.25 0.125 C 7.09375 0.125 4.789062 -0.695312 3.34375 -2.34375 C 1.894531 -3.988281 1.171875 -6.398438 1.171875 -9.578125 C 1.171875 -10.992188 1.359375 -12.296875 1.734375 -13.484375 C 2.117188 -14.671875 2.6875 -15.691406 3.4375 -16.546875 C 4.195312 -17.410156 5.148438 -18.082031 6.296875 -18.5625 C 7.441406 -19.039062 8.800781 -19.28125 10.375 -19.28125 Z M 15.609375 -11.234375 C 15.585938 -11.546875 15.523438 -11.96875 15.421875 -12.5 C 15.316406 -13.03125 15.085938 -13.550781 14.734375 -14.0625 C 14.378906 -14.570312 13.863281 -15.007812 13.1875 -15.375 C 12.507812 -15.738281 11.582031 -15.921875 10.40625 -15.921875 C 9.332031 -15.921875 8.441406 -15.765625 7.734375 -15.453125 C 7.035156 -15.140625 6.472656 -14.75 6.046875 -14.28125 C 5.617188 -13.8125 5.316406 -13.300781 5.140625 -12.75 C 4.972656 -12.207031 4.890625 -11.703125 4.890625 -11.234375 Z M 15.609375 -11.234375 "/></g></g></g><g fill="#38b6ff" fill-opacity="1"><g transform="translate(360.209963, 188.528293)"><g><path d="M 10.21875 -15.6875 C 9.269531 -15.6875 8.457031 -15.613281 7.78125 -15.46875 C 7.101562 -15.332031 6.550781 -15.050781 6.125 -14.625 C 5.695312 -14.207031 5.375 -13.609375 5.15625 -12.828125 C 4.945312 -12.046875 4.84375 -11.03125 4.84375 -9.78125 C 4.84375 -8.34375 4.96875 -7.207031 5.21875 -6.375 C 5.46875 -5.539062 5.820312 -4.921875 6.28125 -4.515625 C 6.738281 -4.109375 7.296875 -3.851562 7.953125 -3.75 C 8.617188 -3.644531 9.375 -3.59375 10.21875 -3.59375 C 10.863281 -3.59375 11.457031 -3.617188 12 -3.671875 C 12.550781 -3.722656 13.039062 -3.847656 13.46875 -4.046875 C 13.90625 -4.242188 14.273438 -4.535156 14.578125 -4.921875 C 14.878906 -5.316406 15.117188 -5.851562 15.296875 -6.53125 L 19.046875 -6.53125 C 18.785156 -5.09375 18.347656 -3.9375 17.734375 -3.0625 C 17.128906 -2.195312 16.421875 -1.53125 15.609375 -1.0625 C 14.796875 -0.59375 13.921875 -0.285156 12.984375 -0.140625 C 12.046875 0.00390625 11.125 0.078125 10.21875 0.078125 C 9.164062 0.078125 8.101562 -0.0234375 7.03125 -0.234375 C 5.96875 -0.441406 5 -0.878906 4.125 -1.546875 C 3.25 -2.210938 2.535156 -3.191406 1.984375 -4.484375 C 1.441406 -5.773438 1.171875 -7.488281 1.171875 -9.625 C 1.171875 -11.789062 1.441406 -13.507812 1.984375 -14.78125 C 2.535156 -16.0625 3.25 -17.039062 4.125 -17.71875 C 5 -18.394531 5.96875 -18.835938 7.03125 -19.046875 C 8.101562 -19.253906 9.164062 -19.359375 10.21875 -19.359375 C 11.125 -19.359375 12.046875 -19.28125 12.984375 -19.125 C 13.921875 -18.96875 14.800781 -18.65625 15.625 -18.1875 C 16.445312 -17.71875 17.15625 -17.039062 17.75 -16.15625 C 18.351562 -15.269531 18.785156 -14.097656 19.046875 -12.640625 L 15.34375 -12.640625 C 15.03125 -13.910156 14.460938 -14.734375 13.640625 -15.109375 C 12.816406 -15.492188 11.675781 -15.6875 10.21875 -15.6875 Z M 10.21875 -15.6875 "/></g></g></g><g fill="#38b6ff" fill-opacity="1"><g transform="translate(380.439996, 188.528293)"><g><path d="M 14.15625 -19.40625 L 17.84375 -19.40625 L 17.84375 0 L 1.953125 0 L 1.953125 -19.40625 L 5.640625 -19.40625 L 5.640625 -3.671875 L 14.15625 -3.671875 Z M 14.15625 -19.40625 "/></g></g></g><g fill="#38b6ff" fill-opacity="1"><g transform="translate(400.239599, 188.528293)"><g><path d="M 14.15625 -19.40625 L 14.15625 -15.734375 L 5.640625 -15.734375 L 5.640625 0 L 1.953125 0 L 1.953125 -19.40625 Z M 14.15625 -19.40625 "/></g></g></g><g fill="#38b6ff" fill-opacity="1"><g transform="translate(415.774062, 188.528293)"><g><path d="M 1.953125 -19.5625 L 5.640625 -19.5625 L 5.640625 0 L 1.953125 0 Z M 5.640625 -27.390625 L 5.640625 -23.703125 L 1.953125 -23.703125 L 1.953125 -27.390625 Z M 5.640625 -27.390625 "/></g></g></g><g fill="#38b6ff" fill-opacity="1"><g transform="translate(423.404327, 188.528293)"><g><path d="M 8.140625 -3.671875 L 16.15625 -3.671875 L 16.15625 0 L 4.453125 0 L 4.453125 -15.734375 L 1.171875 -15.734375 L 1.171875 -19.40625 L 4.453125 -19.40625 L 4.453125 -27.390625 L 8.140625 -27.390625 L 8.140625 -19.40625 L 14.671875 -19.40625 L 14.671875 -15.734375 L 8.140625 -15.734375 Z M 8.140625 -3.671875 "/></g></g></g><g fill="#38b6ff" fill-opacity="1"><g transform="translate(440.973534, 188.528293)"><g><path d="M 5.484375 -19.484375 L 5.484375 -10.0625 C 5.484375 -8.78125 5.585938 -7.726562 5.796875 -6.90625 C 6.003906 -6.082031 6.320312 -5.4375 6.75 -4.96875 C 7.175781 -4.5 7.722656 -4.171875 8.390625 -3.984375 C 9.054688 -3.804688 9.832031 -3.71875 10.71875 -3.71875 C 11.632812 -3.71875 12.441406 -3.804688 13.140625 -3.984375 C 13.847656 -4.171875 14.4375 -4.5 14.90625 -4.96875 C 15.375 -5.4375 15.734375 -6.054688 15.984375 -6.828125 C 16.234375 -7.597656 16.359375 -8.566406 16.359375 -9.734375 L 16.359375 -19.484375 L 20.078125 -19.484375 L 20.078125 7.9375 L 3.484375 7.9375 L 3.484375 4.21875 L 16.234375 4.21875 L 16.234375 -2.265625 L 16.15625 -2.265625 C 15.769531 -1.671875 15.070312 -1.148438 14.0625 -0.703125 C 13.0625 -0.265625 11.9375 -0.046875 10.6875 -0.046875 C 9.632812 -0.046875 8.566406 -0.148438 7.484375 -0.359375 C 6.410156 -0.566406 5.425781 -1.007812 4.53125 -1.6875 C 3.644531 -2.363281 2.925781 -3.347656 2.375 -4.640625 C 1.832031 -5.929688 1.5625 -7.644531 1.5625 -9.78125 L 1.5625 -19.484375 Z M 5.484375 -19.484375 "/></g></g></g></svg>